<?xml version="1.0" encoding="utf-8"?>
<!-- Generator: Adobe Illustrator 25.0.1, SVG Export Plug-In . SVG Version: 6.00 Build 0)  -->
<svg version="1.0" id="Layer_1" xmlns="http://www.w3.org/2000/svg" xmlns:xlink="http://www.w3.org/1999/xlink" x="0px" y="0px"
	 viewBox="0 0 841.89 595.28" style="enable-background:new 0 0 841.89 595.28;" xml:space="preserve">
<style type="text/css">
	.st0{fill:#FFFFFF;}
</style>
<g>
	<g>
		<g>
			<path class="st0" d="M-286.22,385.56c0.4,1.2,0.8,2.4,1.03,3.08c-1.15,1.13-2.17,1.82-2.73,2.82c-0.21,0.37,0.71,1.45,0.95,2.27
				c0.27,0.9,0.63,1.91,0.49,2.79c-0.35,2.27-0.09,4.09,1.01,6.23c1.11,2.15,1.08,5.03,1.64,7.56c2.34,10.69,4.72,21.37,7.04,32.07
				c0.22,1,0.11,2.08,0.17,3.12c0.04,0.65-0.09,1.48,0.21,1.91c1.76,2.5,1.46,5.46,1.9,8.34c0.7,4.59,2.24,9.01,3.4,13.5
				c0.83,3.2,1.61,6.43,2.46,9.62c1.27,4.74,2.64,9.44,3.86,14.19c1.56,6.05,2.9,12.17,4.59,18.17c0.75,2.68,2.1,5.15,3.23,7.69
				c1.02,2.27,0.52,7.36-0.97,9.26c-1.42,1.82-2.86,1.73-3.68-0.41c-1.2-3.14-2.39-6.31-3.3-9.57c-4.53-16.24-9.01-32.5-13.41-48.79
				c-3.81-14.09-7.51-28.22-11.23-42.33c-4.45-16.87-8.9-33.74-13.32-50.61c-0.77-2.94-1.41-5.92-2.11-8.88
				c0.2-0.08,0.39-0.15,0.59-0.23c1.09,3.63,2.19,7.27,3.28,10.9c0.36-0.12,0.72-0.24,1.08-0.37
				c-13.37-62.87-26.6-120.48-40.34-183.25c-0.27,0.03-0.73-6.27-1-6.24c0.11,3.13,2.48,15.93,2.76,19.04c0.4,4.53-0.48,2.64,0,7.16
				c0.15,1.45,1.88,14.25,1.94,15.71c0.3,6.45,0.45,13.08,0.71,19.54c0.43,10.72-0.15,7.23,0.25,17.95
				c0.03,0.8,0.96,8.99,0.95,10.02c-0.61-0.17,0.85,8.26,0.2,8.08c0.12,4.28,1.27,3.67,1.39,7.72c0.16,5.39,0.18,6.23,0.39,11.62
				c0.12,3.02,0.68,6.04,0.79,9.06c-0.61,1.57-0.86-0.57-0.71,3.92c0.02,0.48-1.17,1.61-1.17,1.61c1.97,2.68-0.44,1.96-0.2,3.85
				c-0.49,0.95,0.42,2.22,0.2,3.24c-0.15,0.73,0.86,2.91-0.28,3.66c0.15,0.55,0.26,2.24,0.31,2.8c0.17,1.7-0.24,1.64-0.08,3.35
				c0.05,0.53,0.16,2.15,0.18,2.63c0.11,2.21,1.34,0.92,0.26,3.1c0.39,0.47,0,0-0.21,1.66c0,0,0.4,1.98,0.62,2.02
				c0.2-0.52,1.57,5.21-0.5,5.03c0.06,0.29,1.73,2.7,1.74,2.9c0.24,3.02-0.47,0.92,0.31,3.74c-0.09,2.64-0.95,4.4-1.3,6.8
				c-0.05,0.37,1.69,1.7,1.84,2.15c0.82,2.5-0.67,7.27-0.44,10.07c0.06,0.77,1.44,1.41,1.3,5.65c0.22,3.63,0.75,5.52,0.39,9.41
				c0.23,4,1.5,8.78,1.52,12.78c0.09,13.03,0.8,13.49,0.87,26.52c0.03,5.3-0.17,13.88-0.27,19.17c-0.17,9.08,0.73,17.84,0.8,26.91
				c0.06,8.75,0.55,21.21,1.24,29.92c0.34,4.29,0.89,7.85,1.63,12.1c0.31,1.79-1.76,2.94-0.33,2.87c4.49-0.2,6.88-0.35,11.36-0.19
				c4.29,0.16,8.56,0.86,12.85,1.24c2.74,0.24,3.07,0.84,2.88,4c-0.22,3.79-0.6,4.61-5.41,5.81c-2.32,0.58-4.64,1.74-6.96,1.72
				c-6.93-0.06-13.86-0.49-20.77-0.95c-1.7-0.11-3.41-0.75-5-1.48c-0.78-0.36-1.64-1.37-1.85-2.26c-0.68-3.05-1.34-6.15-1.55-9.28
				c-0.68-10.03-0.72-20.15-1.87-30.1c-0.73-6.36-0.82-12.7-0.98-19.04c-0.47-19.01-0.68-38.03-0.95-57.04
				c-0.13-8.67-0.08-17.35-0.28-26.02c-0.25-10.64-0.78-21.26-1.01-31.9c-0.21-9.74-0.01-19.49-0.32-29.22
				c-0.21-6.68-1.01-13.33-1.5-20c-0.2-2.77-0.27-5.56-0.43-8.33c-0.05-0.82-0.22-1.64-0.34-2.45c-0.06-0.4-0.29-1.03-0.16-1.15
				c2.37-2.13,0.41-4.85,0.79-7.25c0.17-1.08-0.29-2.36-0.68-3.45c-0.68-1.91-1.76-3.68,0.09-5.63c0.38-0.4,0.07-1.67,0-2.53
				c-0.23-2.95-0.51-5.9-0.74-8.85c-0.07-0.97,0.21-2.06-0.09-2.9c-1.66-4.6-1.01-9.46-1.47-14.19c-0.48-4.99-0.39-9.99-0.72-14.98
				c-0.09-1.29,0.13-2.6,0.1-3.9c-0.05-1.77-0.19-3.55-0.3-5.32c-0.27-4.23-0.59-8.47-0.83-12.7c-0.21-3.76-0.44-7.52-0.43-11.28
				c0.01-2.83,0.64-5.67,0.56-8.49c-0.15-5.01-0.63-10.01-0.96-15.02c-0.41-6.45-0.81-12.91-1.21-19.36
				c-0.38-6.18-0.57-12.38-1.17-18.54c-0.36-3.74-1.32-7.4-2.01-11.1c1.01,0.38,2.01,0.75,3.15,1.18c-0.1-0.97-0.2-1.92-0.35-3.36
				c2.78,2.35,3.26-0.49,4.52-2.18c0.65,2.62,1.67,3.19,3.69,1.61c1.19-0.93,2.02,0.37,2.05,1.82c0.04,1.59,0.63,2.66,2.06,2.37
				c0.67-0.13,1.23-1.13,1.77-1.82c0.81-1.02,1.46-2.23,2.36-3.11c0.38-0.37,1.57-0.4,1.83-0.05c1.1,1.46,2.43,2.99,2.85,4.74
				c1.29,5.36,1.96,10.91,3.31,16.24c1.82,7.2,4.04,14.26,6.12,21.37c0.13,0.46,0.58,0.8,1.19,1.01c-0.31-1.35-0.63-2.7-0.94-4.05
				c0.2-0.07,0.4-0.13,0.6-0.2c0.97,3.5,1.97,6.98,2.87,10.5c0.11,0.44-0.15,1.3-0.48,1.54c-1.53,1.12-0.13,2.17-0.05,3.24
				c2.25-0.34,1.1,2.12,1.92,2.94c-0.47-0.38-0.94-0.75-1.41-1.13c-0.23,0.4-0.73,0.92-0.64,1.17c0.37,1,0.92,1.91,1.4,2.86
				c0.21-0.12,0.43-0.23,0.64-0.35c-0.09-0.6-0.18-1.2-0.27-1.8c2.41,3.71,3.89,7.84,4.29,12.42c0.2,2.35,0.27,4.72,0.4,7.3
				c-0.37-0.08-0.77-0.17-1.75-0.39c0.72,3.02,1.37,5.74,2.01,8.47c0.17-0.01,0.35-0.02,0.52-0.04c-0.04-1.02-0.09-2.04-0.13-3.06
				c0.22-0.06,0.45-0.11,0.67-0.17c0.59,2.94,1.13,5.89,1.77,8.81c0.67,3.09,1.35,6.17,2.15,9.22c1.04,3.99,2.34,7.9,3.27,11.92
				c0.87,3.79,1.38,7.68,2.11,11.51c0.33,1.75,0.97,3.44,1.17,5.2c0.28,2.58,0.05,5.24,0.46,7.78c0.97,5.95,2.01,11.91,3.4,17.74
				c0.62,2.61,2.28,4.88,3.23,7.41c2.67,7.13,5.29,14.25,6.13,22.09c0.7,6.56,1.8,13.09,3.1,19.54c0.88,4.35,2.48,8.5,3.63,12.78
				c1.32,4.91,2.72,9.81,3.67,14.82c1.16,6.08,3.08,11.93,4.21,17.97c0.64,3.42,1.48,6.57,2.87,9.62c0.07,0.14,0.11,0.31,0.12,0.47
				c0.12,8.33,3.11,16,4.31,24.08c0.28,1.9,0.1,3.89,0.34,5.8c0.11,0.83,0.79,1.56,1.17,2.35c0.37,0.77,0.83,1.53,1.03,2.36
				c1.78,7.33,3.67,14.64,5.21,22.04c1.25,6.01,1.87,12.19,3.16,18.19c1.19,5.53,2.14,11.01,1.68,16.73
				c-0.02,0.24-0.05,0.55,0.05,0.72c3.52,5.79,2.91,13.05,5.34,19.22c0.14,0.36,0.26,0.72,0.6,1.66c0.05-3.65,0.14-6.69,0.12-9.72
				c-0.02-3.19-0.07-6.38-0.26-9.56c-0.11-1.94-0.63-3.85-0.74-5.79c-0.36-6.16-0.64-12.32-0.92-18.49
				c-0.13-2.87-0.09-5.76-0.31-8.62c-0.29-3.86-0.85-7.7-1.1-11.57c-0.1-1.53,0.48-3.11,0.47-4.66c0-1.51,0.04-3.33-0.64-4.47
				c-1.87-3.12-1.75-6.73-1.96-10.06c-0.22-3.51-0.47-6.98-1.07-10.43c-0.12-0.69-0.24-1.7,0.09-2.12c1.5-1.9,0.59-3.73,0.35-5.75
				c-0.3-2.51,0.03-5.12,0.17-7.69c0.13-2.4,0.46-4.79,0.5-7.19c0.02-0.91-0.7-1.81-0.75-2.75c-0.1-1.86,0.12-3.74,0.04-5.61
				c-0.06-1.41-0.49-2.79-0.56-4.2c-0.18-3.4-0.27-6.81-0.31-10.21c0-0.28,0.75-0.51,0.9-0.88c0.38-0.97,0.92-2.04,0.86-3.02
				c-0.13-2.15-0.71-4.26-0.88-6.41c-0.3-3.68-0.89-7.39,0.82-10.96c0.43-0.91,0.22-2.26,0.17-3.4c-0.12-3.08-0.23-6.17-0.5-9.24
				c-0.11-1.26-0.78-2.46-0.89-3.72c-0.23-2.73-0.26-5.49-0.37-8.24c-0.01-0.24,0.07-0.5,0.02-0.74c-0.34-1.8-1.1-3.64-0.92-5.36
				c0.17-1.64,1.31-3.15,2.13-4.94c-2.7-0.8-2.23-3.1-1.76-4.65c1.08-3.62,0.02-7.02-0.6-10.31c-0.96-5.07-0.55-10.04-0.43-15.08
				c0.13-5.55-0.02-11.11,0.04-16.67c0.09-8.77,0.19-17.54,0.42-26.31c0.07-2.84,0.46-5.7,0.92-8.5c0.2-1.24,0.94-2.38,1.28-3.21
				c0.14-0.89,0.29-1.48,0.3-2.07c0.01-0.43-0.22-0.86-0.25-1.3c-0.06-0.96-0.36-2.1-0.01-2.85c2.11-4.52,0.76-9.27,1.06-13.93
				c-2.19,2.37-2.12,5.48-2.24,8.52c-0.25,0-0.5,0-0.76,0c-0.19-1.97-0.58-3.94-0.55-5.91c0.18-10.48,0.45-20.95,0.7-31.42
				c0.19-7.85,0.46-15.69,0.54-23.54c0.04-3.33-0.34-6.66-0.46-10c-0.03-0.84,0.2-1.7,0.36-2.94c-0.91-1.86-2.59-2.53-4.77-1.98
				c-7.61,1.91-15.12,0.2-22.58-1.05c-2.22-0.37-4.23-2.63-6.19-4.24c-0.51-0.42-0.88-1.88-0.62-2.51c0.43-1.06,1.39-2.55,2.17-2.59
				c1.77-0.09,4.09-1.55,5.25,1.45c0.05,0.14,0.41,0.22,0.6,0.19c2.63-0.47,5.27-0.91,7.89-1.46c1.54-0.32,3.04-0.96,4.58-1.2
				c3.25-0.51,6.69-0.28,9.73-1.44c2.42-0.92,4.63-0.97,6.99-0.78c3.4,0.27,5.58,2.53,7.29,5.61c0.41,0.75,1.12,1.29,1.56,2.02
				c0.51,0.85,1.26,1.81,1.25,2.71c-0.04,2.33,0.33,4.19,1.89,4.75c-0.33,1.39-0.79,2.48-0.81,3.57c-0.12,8.19-0.16,16.38-0.2,24.58
				c-0.01,1.47-0.06,2.98,0.2,4.4c1.88,10.31,1.38,20.75,1.11,31.13c-0.42,16.19-1.39,32.35-2,48.54
				c-0.14,3.67,0.07,7.39,0.48,11.03c1.35,11.96,0.06,23.9-0.1,35.85c-0.15,11.06,0.08,22.12,0.17,33.18
				c0.04,4.8,0.09,9.59,0.3,14.38c0.04,0.92,0.74,1.86,1.27,2.68c0.83,1.28,2.39,2.46-0.56,3.01c-0.6,0.11-1.34,1.8-1.36,2.78
				c-0.02,1.16,0.35,2.79,1.09,3.43c1.99,1.7,2.41,2.22,0.41,4.05c-1.9,1.75-1.79,3.7-1.78,5.88c0,0.25,0.03,0.5,0,0.74
				c-0.29,2.67-0.09,5.05,2.67,6.04c0.33,0.12,0.53,0.71,0.92,1.25c-1.24,1.02-2.43,1.94-3.55,2.95c-0.3,0.27-0.6,0.82-0.56,1.21
				c0.15,1.77,0.29,3.56,0.73,5.25c0.15,0.55,1.19,0.81,1.64,1.08c0.85,2.74,1.66,5.37,2.5,8.08c-1.23,0.69-2.32,1.3-3.47,1.95
				c0.76,1.98,1.52,3.93,2.57,6.66c-0.27,1.46,2.22,5.22-2.31,6.07c0.38,0.11,0.76,0.32,1.13,0.3c1.59-0.07,2.52,0.36,1.63,2.39
				c-0.06,0.14-0.13,0.35-0.08,0.47c1.21,3.09-0.36,5.56-1.6,8.02c2.24,1.84,2.13,4.44,2.21,6.96c0.04,1.55,0.05,3.1,0.02,4.64
				c-0.02,0.8,0.11,1.86-0.28,2.35c-1.86,2.32-0.74,4.57-0.21,6.91c0.29,1.28,0.29,2.65,0.39,3.99c0.2,2.73,0.38,5.47,0.58,8.21
				c0.04,0.49,0.34,1.11,0.16,1.43c-1.04,1.87-0.09,3.6,0.03,5.43c0.55,8.75,1.5,17.55,1.08,26.26c-0.5,10.3,0.89,20.42,0.94,30.65
				c0.02,3.82,0.71,7.63,0.72,11.45c0.01,2.65-0.15,5.55-1.13,7.86c-0.61,1.43-1.6,3.53-2.66,4.17c-1.32,0.8-3.44,0.19-5.15-0.19
				c-1.17-0.27-2.22-1.2-3.42-1.89c-0.52,1.19-0.77,1.97-1.17,2.63c-0.29,0.48-0.81,1.16-1.17,1.13c-0.44-0.05-1.08-0.69-1.18-1.19
				c-0.3-1.58-0.68-3.25-0.52-4.82c0.55-5.14-0.66-9.88-2.08-14.64c-2.69-9.06-5.34-18.14-7.89-27.26
				c-3.1-11.08-6.23-22.15-9.04-33.33c-2.04-8.09-3.57-16.33-5.34-24.51c-2.98-13.76-5.94-27.52-8.96-41.27
				c-0.85-3.88-1.88-7.71-2.87-11.55c-0.23-0.89-0.63-1.72-1.15-3.13c-2.02,4.53,0.51,8,0.58,11.68c-0.48-1.11-0.95-2.23-1.59-3.72
				c-1.24,2.91,0.01,4.52,1.56,6.12C-286.25,387.22-286.23,386.39-286.22,385.56z M-287.87,372.01c1.61-2.16,1.21-3.93,0.82-5.62
				c-2.48-10.77-5.01-21.52-7.49-32.29c-1.91-8.29-3.78-16.59-5.71-24.87c-0.48-2.04-1.22-4.01-1.68-6.05
				c-1.04-4.64-0.89-9.71-4.02-13.58c-0.33-0.41-0.24-1.25-0.33-1.89c-0.47-3.31-0.72-6.68-1.45-9.91
				c-2.02-8.87-4.24-17.68-6.39-26.51c-0.66-2.71-1.38-5.41-2.24-8.78c0.24,3.03,0.37,5.37,0.62,7.68c0.2,1.92,0.5,3.82,0.84,5.72
				c0.14,0.78,0.58,1.5,0.71,2.29c0.56,3.5,0.95,7.05,1.59,10.53c0.87,4.72,1.94,9.39,2.88,14.09c0.15,0.77,0.38,1.86,0.05,2.34
				c-0.92,1.34-0.01,1.93,0.42,2.94c0.51,1.17,0.5,2.63,0.69,3.97c0.07,0.5-0.1,1.32,0.13,1.48c2.32,1.68,2.29,4.65,2.97,7.11
				c2.41,8.74,4.58,17.56,6.84,26.35c1.55,6.04,3.19,12.06,4.64,18.13c1.84,7.73,3.52,15.5,5.28,23.25
				C-288.48,369.4-288.24,370.4-287.87,372.01z M-319,222.33c0.27-0.08,0.55-0.15,0.82-0.23c-6.14-27.16-12.26-54.32-20.21-80.93
				c-0.15,1.73,0.1,3.36,0.35,4.99c0.41,2.65,0.77,5.32,1.23,7.96c1.27,7.43,2.6,14.86,3.86,22.29c0.27,1.62,0.22,3.32,0.55,4.92
				c0.49,2.35,1.17,4.66,1.82,6.97c0.14,0.5,0.5,0.94,0.8,1.37c0.61,0.88,1.56,1.63,1.83,2.62c1.13,4.23,2.01,8.55,3.09,12.79
				c0.6,2.37,0.64,5.06,2.78,6.69c0.38,0.29,0.39,1.18,0.57,1.8C-320.68,216.49-319.84,219.41-319,222.33z M-298.63,385.83
				c0.2-0.1,0.4-0.21,0.59-0.31c-1.6-1.55,1.09-5.38-2.98-5.75C-300.19,381.86-299.41,383.84-298.63,385.83z"/>
			<path class="st0" d="M-292.05,351.18c-3.63-12.68-7.26-25.36-10.89-38.03c0.24-0.07,0.47-0.14,0.71-0.2
				c3.77,12.64,7.54,25.28,11.32,37.92C-291.29,350.97-291.67,351.08-292.05,351.18z"/>
		</g>
		<path class="st0" d="M-42.73,491.47 M-226.64,512.85c-0.35-5.3-0.82-10.58-1.08-15.88c-0.25-5.08-0.29-10.18-0.45-15.27
			c-0.19-6.36-0.33-12.72-0.64-19.08c-0.34-6.88-0.95-13.75-1.28-20.63c-0.25-5.27-0.14-10.55-0.42-15.82
			c-0.17-3.3-0.91-6.57-1.13-9.87c-0.44-6.47-0.7-12.95-1.02-19.42c-0.38-7.67-0.98-15.33-1.06-23c-0.05-5.29,0.49-10.61,1.02-15.89
			c0.53-5.21,1.22-10.39,0.64-15.66c-0.06-0.58,0.41-1.27,0.75-1.84c0.33-0.55,0.84-0.97,1.21-1.49c0.97-1.38,2.74-2.07,4.27-1.53
			c0.31,0.11,0.78,0.6,0.74,0.8c-0.13,0.54-0.4,1.34-0.79,1.46c-1.49,0.48-1.86,0.89-0.94,2.59c0.7,1.29,0.72,2.98,1.95,4.09
			c0.21,0.19,0.1,0.8,0.11,1.22c0.03,2.05-0.16,4.13,0.15,6.12c0.24,1.53,0.95,3.05,1.73,4.4c1,1.74,0.66,3.44,0.51,5.25
			c-0.13,1.57,0.1,3.18,0.19,4.76c0.15,2.53,0.41,5.06,0.47,7.59c0.08,2.91,0.05,5.82-0.04,8.72c-0.05,1.6-0.32,3.2-0.48,4.8
			c-0.04,0.42-0.1,0.86-0.04,1.27c0.31,2.07,1.19,4.04,0.06,6.25c-0.33,0.65,0.87,2.02,1,3.1c0.33,2.69,0.21,5.44,0.69,8.1
			c1.24,6.95,0.59,13.98,1.06,20.96c0.46,6.95,0.36,13.93,0.63,20.89c0.08,2.15,0.6,4.28,0.84,6.43c0.19,1.67,0.26,3.36,0.37,5.05
			c0.23,3.49,0.36,6.99,0.69,10.46c0.4,4.14,1.17,8.24,1.42,12.39c0.17,2.86-0.3,5.76-0.44,8.65c-0.03,0.72,0.08,1.45,0.17,2.17
			c0.06,0.48,0.29,0.94,0.3,1.41c0.04,2.9,0.01,5.79,0.06,8.69c0.01,0.65,0.02,1.45,0.35,1.93c0.83,1.2,0.96,2.18,0.37,3.65
			c-0.73,1.81,1.97,5.39,3.9,5.79c0.87,0.18,1.94,0.51,2.43,1.17c0.91,1.2,1.64,0.88,2.69,0.4c0.47-0.22,1.31-0.09,1.73,0.24
			c0.93,0.73,3.05,0.99,3.66,0.02c0.67-1.06,1.3-0.63,2.07-0.39c1.97,0.62,3.95,1.24,5.93,1.79c0.49,0.14,1.05,0.13,1.55,0.02
			c7.53-1.56,15.18-0.63,22.76-1.08c2.05,2.06,3.97-0.11,5.96-0.17c2.65-0.08,5.31,0.04,7.97-0.01c0.85-0.02,1.74-0.16,2.54-0.47
			c1.26-0.49,1.46-1.58,1.12-2.84c-0.24-0.89-0.45-1.78-0.71-2.66c-0.87-2.91-1.74-5.83-2.63-8.73c-0.78-2.51-1.6-5.01-2.37-7.53
			c-0.5-1.61-0.93-3.24-1.42-4.84c-1.96-6.42-3.91-12.84-5.91-19.24c-2.09-6.7-4.26-13.37-6.36-20.07c-0.72-2.3-1.27-4.65-1.98-6.95
			c-1.33-4.32-2.75-8.61-4.09-12.93c-1.12-3.61-2.16-7.25-3.28-10.86c-1.37-4.4-2.83-8.76-4.19-13.16
			c-1.05-3.38-2.05-6.78-3.02-10.19c-1.69-5.95-3.24-11.94-5.05-17.84c-0.94-3.07-2.35-5.99-3.47-9.01
			c-1.02-2.74-2.06-5.48-2.89-8.29c-1.28-4.37-2.73-8.74-3.46-13.23c-0.54-3.31-1.4-6.4-2.66-9.43c-0.84-2-0.26-2.9,1.82-2.98
			c0.56-0.02,1.11-0.29,1.66-0.45c1.72-0.51,3.39-2.14,4.97-0.06c0.65-0.92,1.16-1.63,1.66-2.34c0.42,0.74,0.96,1.44,1.24,2.24
			c0.75,2.12,1.39,4.28,1.7,6.6c-0.81-1.26-1.62-2.51-2.43-3.77c-0.24,0.12-0.48,0.24-0.71,0.37c0.55,1.28,1.11,2.55,1.65,3.83
			c0.77,1.84,1.54,3.68,2.27,5.53c0.41,1.06,0.78,2.14,1.09,3.24c1.26,4.45,2.48,8.91,3.73,13.36c0.19,0.69,0.45,1.37,0.68,2.05
			c1.04,3.03,2.05,6.08,3.16,9.09c0.5,1.36,1.33,2.59,1.81,3.96c0.24,0.68,0.07,1.54,0.03,2.32c-0.08,1.32-0.25,2.56,1.11,3.48
			c0.75,0.51,1.56,1.4,0.7,2.6c-0.09,0.12-0.12,0.46-0.05,0.51c1.71,1.23,0.89,2.91,0.93,4.53c0.03,0.94,0.92,2.04,1.7,2.72
			c0.79,0.69,1.17,1.23,1.16,2.37c-0.01,0.87,0.77,1.71,0.98,2.62c1.07,4.6,3.47,8.78,3.87,13.61c0.12,1.44,0.92,2.83,1.43,4.23
			c1.2,3.28,1.65,6.82,3.65,9.83c0.87,1.31,1.01,3.14,1.55,4.71c0.96,2.82,2.06,5.58,2.94,8.42c1.36,4.41,2.67,8.85,4.89,12.88
			c0.78,1.41,1.96,2.56,1.16,4.4c-0.09,0.2,0.18,0.76,0.43,0.92c1.09,0.71,0.98,1.48-0.01,2.38c1.65,0.73,1.97,1.98,2.21,3.62
			c0.31,2.1,1.29,4.1,2.02,6.13c0.66,1.83,1.49,3.6,1.99,5.47c0.17,0.62-0.45,1.48-0.57,1.82c1.35,2.66,2.6,5.1,3.84,7.55
			c-0.15,0.11-0.3,0.22-0.45,0.34c-0.44-0.21-0.87-0.41-1.66-0.78c0.31,1.56,0.44,2.91,1.76,3.64c2.34,1.29,2.24,1.22,1.11,3.81
			c-0.28,0.65,0.22,2.17,0.83,2.67c1.76,1.48,2.14,2.77,0.81,4.87c1.35,0.47,0.29,3.83,2.77,2.98c0.82,1.76,1.68,3.69,2.63,5.56
			c0.21,0.42,0.87,0.56,1.15,0.96c0.61,0.86,1.23,1.76,1.62,2.74c0.31,0.79,0.27,1.73,0.77,2.67c0.14-0.32,0.41-0.64,0.4-0.96
			c-0.14-4.42-0.27-8.84-0.51-13.26c-0.09-1.64-0.95-3.36-0.65-4.87c1.09-5.42,0.37-10.89,0.64-16.32
			c0.17-3.49-0.25-7.02-0.49-10.52c-0.12-1.67-0.75-3.35-0.64-4.98c0.43-6.29-0.09-12.58-1.3-18.64c-0.83-4.14-1.12-8.13-0.64-12.19
			c0.67-5.64-0.86-11.14-0.68-16.73c0.09-2.66-0.04-5.33-0.21-7.99c-0.09-1.43-0.46-2.83-0.71-4.25c-0.04-0.23-0.22-0.5-0.16-0.69
			c1.29-3.86-0.11-7.64-0.29-11.45c-0.24-5.15-0.25-10.3-0.35-15.46c-0.13-6.49-0.19-12.97-0.43-19.46
			c-0.08-2.09-0.76-4.14-0.92-6.24c-0.12-1.65,0.09-3.34,0.26-5c0.35-3.41,0.66-6.83,1.2-10.2c0.23-1.45,2.07-1.78,2.91-0.54
			c0.88,1.29,1.71,1.26,2.73,0.4c2.49-2.08,5.33-0.79,8.02-0.89c0.74-0.03,1.48,0.07,2.22,0.1c0.46,0.02,1.05-0.16,1.36,0.08
			c2.54,1.93,5.74,0.5,8.39,1.86c0.53,0.27,1.26,0.06,1.87,0.21c1.03,0.26,2.03,0.63,3.04,0.96c0.05,0.02,0.08,0.11,0.13,0.11
			c1.33,0.19,2.67-0.38,3.76,1.49c0.53,0.9,2.91,0.51,4.39,0.95c1.41,0.42,2.82,1,4.05,1.82c0.6,0.4,1.13,1.56,1.02,2.27
			c-0.09,0.58-1.11,1.32-1.8,1.44c-2.83,0.46-5.74,1.2-8.53,0.9c-2.57-0.27-4.96,0.4-7.44,0.48c-1.31,0.05-2.58,1.14-3.87,1.78
			c-0.42,0.21-0.81,0.49-1.48,0.91c0.16-1.33,0.27-2.24,0.4-3.32c-2.22,0.49-4.3,0.84-6.3,1.46c-0.58,0.18-1.35,1.13-1.35,1.73
			c-0.01,2.64-1.37,5.1,0.21,8.03c1.44,2.66,2,6.11,2.12,9.25c0.3,7.68,0.18,15.37,0.11,23.06c-0.06,6.76-0.29,13.52-0.46,20.27
			c-0.09,3.81-0.33,7.62-0.29,11.42c0.05,4.24,0.19,4.24,4.11,4.25c4.14,0.02,8.29,0.06,12.43,0.19c1.71,0.05,3.54,0.84,5.1,0.42
			c2.73-0.75,5.29,0.79,7.93,0.09c0.83-0.22,1.73-0.23,2.51-0.58c2.46-1.1,4.36,0.76,6.52,1.24c0.13,0.03,0.18,0.5,0.36,1.07
			c-2.46-0.51-2.41,1.02-2.51,2.73c-0.14,2.48-0.26,2.48-3.63,3.01c-0.12,1.37,0.65,1.59,1.7,1.53c1.09-0.06,2.23-0.34,3.26-0.09
			c1.9,0.46,3.75,1.17,5.56,1.93c0.83,0.35,0.63,2.02-0.31,2.56c-0.82,0.47-1.26,0.93-1.6,2.01c-0.3,0.95-1.91,2.05-2.89,2
			c-1.16-0.06-2.15,0.36-3.22,0.39c-1.17,0.03-2.43-0.05-3.49-0.5c-1.83-0.79-3.53-0.79-5.36-0.12c-0.96,0.35-2.06,0.27-3.05,0.56
			c-4.33,1.29-8.8,1.68-13.25,2.11c-1.77,0.17-3.57,0.11-5.33,0.34c-0.47,0.06-0.96,0.76-1.25,1.28c-0.24,0.44-0.23,1.06-0.26,1.6
			c-0.21,3.85-0.49,7.69-0.55,11.54c-0.02,1.45,0.45,2.92,0.7,4.38c0.13,0.77,0.35,1.54,0.42,2.32c0.28,3.19,0.67,6.37,0.73,9.57
			c0.04,2.03-0.43,4.08-0.65,6.12c-0.07,0.66-0.14,1.33-0.14,1.99c0.01,3.91,0.08,7.81,0.07,11.72c-0.01,4.73,0.48,9.35,2.52,13.68
			c0.47,0.99,0.58,2.17,0.78,2.99c2.83,0.58,5.54,1.32,8.29,1.64c2.8,0.33,5.68,1.09,8.42-0.48c0.39-0.22,0.87-0.34,1.32-0.37
			c3.26-0.23,6.52-0.41,9.78-0.64c0.51-0.03,1.01-0.19,1.52-0.3c1.22-0.26,2.43-0.75,3.65-0.74c2.96,0.05,5.93,0.31,8.89,0.53
			c1.03,0.07,2.11,0.11,2.21,1.68c0.02,0.35,0.56,0.95,0.87,0.96c1.45,0.02,2.91-0.09,4.35-0.22c1.13-0.1,2.25-0.33,3.38-0.44
			c1.56-0.15,4.73-3.89,4.57-5.52c-0.14-1.51-0.72-2.69-1.92-2.73c-0.6-1.78-1.02-3.33-1.65-4.79c-1.12-2.58-2.34-5.08-2.3-8.05
			c0.01-0.83-0.83-1.64-1.1-2.52c-0.69-2.28-2.05-4.44-1.54-6.98c0.39-1.93,0.95-3.83,1.36-5.76c0.1-0.47-0.19-1.01-0.17-1.52
			c0.02-0.4,0.26-0.78,0.4-1.17c0.22,0.29,0.49,0.57,0.65,0.89c0.13,0.25,0.07,0.79,0.2,0.83c0.4,0.11,1.15,0.19,1.21,0.03
			c0.58-1.42,1.02-2.89,1.54-4.34c0.15-0.41,0.44-0.76,0.67-1.14c0.34,0.29,0.77,0.51,0.99,0.88c1.76,3.01,3.99,5.84,3.56,9.75
			c-0.04,0.33,0.33,0.72,0.51,1.08c0.4,0.79,0.8,1.58,1.18,2.37c0.42,0.87,0.83,1.74,1.28,2.69c0.41,0.94,0.93,1.87,1.21,2.88
			c0.26,0.95,0.09,2.05,0.42,2.96c0.8,2.17,1.82,4.24,2.66,6.39c0.3,0.75,0.35,1.61,0.53,2.54c0.6-0.01,1.26-0.02,2.31-0.04
			c-0.52-0.45-0.76-0.62-0.97-0.83c-0.76-0.79-1.11-1.48,0.32-1.91c0,0,2.79-1.61,5.61,0c0.99,0.9,0.74,1.98,0.16,2.96
			c-0.62,1.07-1.01,1.94,0.12,3.03c0.34,0.33,0.22,1.66-0.14,2.2c-0.74,1.11-0.75,2.04-0.19,3.2c0.25,0.51,0.19,1.21,0.16,1.82
			c-0.03,0.74-0.28,1.48-0.27,2.21c0.03,1.52,0.1,3.05,0.3,4.56c0.14,1.02,0.29,2.21,0.87,2.96c0.04,9.29-6.33,7.71-6.33,7.71
			c-1.28-0.76-2.06-1.23-3.13,0.11c-0.13,0.17-1.21-0.1-1.38-0.43c-1.13-2.13-2.07-2.21-4.28-1.14c-1.04,0.5-2.53,0.01-3.82-0.06
			c-3.5-0.19-6.98-1.21-10.5-0.33c-0.22,0.06-0.55,0.02-0.64,0.16c-0.87,1.3-1.7,0.88-2.54-0.22c-0.94,1.33-1.81,2.03-2.23-0.47
			c-0.87,0.33-1.58,0.6-2.3,0.86c-0.21,0.08-0.46,0.24-0.63,0.18c-3.84-1.32-7.63-0.51-11.42,0.27c-0.23,0.05-0.46,0.1-0.69,0.07
			c-2.03-0.28-4-0.34-6.09,0.01c-2.02,0.33-4.18-0.37-6.28-0.53c-1.34-0.1-2.74-0.3-4.03-0.01c-2.15,0.47-4.2,1.43-6.35,1.91
			c-0.73,0.16-1.63-0.47-2.44-0.78c-0.59-0.22-1.16-0.74-1.72-0.71c-1.37,0.07-2.74,0.59-4.1,0.56c-1.94-0.04-3.86-0.44-5.8-0.6
			c-0.69-0.06-1.4,0.14-2.11,0.22c0.61-1.34-0.23-2.32-1.64-2.74c-0.5-0.15-1.17,0.33-1.76,0.52c0.05,0.21,0.69,0.45,0.74,0.66
			l-0.63,1.07l-1.08,0.82c-1.32,0.02-2.55,0.1-3.78,0.05c-3.2-0.13-6.4-0.35-9.61-0.47c-0.42-0.02-0.84,0.32-1.28,0.46
			c-0.7,0.22-1.52,0.76-2.08,0.55c-2.61-0.94-5.1,0.33-7.63,0.2c-3.78-0.19-7.55-0.64-11.33-0.99c-4.01-0.37-8.01-0.88-12.03-1.07
			c-3.22-0.16-6.45,0.06-9.23,0.11c0.18-0.02,0.82-0.08,1.46-0.14c-1.46-0.18-2.78-0.42-4.16,0.8c-0.73,0.65-2.39,0.13-3.63,0.16
			c-1.39,0.04-2.78,0.16-4.17,0.15c-1.03-0.01-2.18,0.09-3.05-0.34c-2.02-1-2.23-1.02-3.79,0.72c-0.32,0.35-1.12,0.46-1.63,0.35
			c-1.48-0.32-2.8-1.37-4.5-0.73c-0.42,0.16-1.15-0.57-1.39-0.71c-0.94,0.69-1.61,1.54-2.4,1.66c-0.59,0.09-1.3-0.76-1.96-1.19
			c0.04-0.17,0.08-0.34,0.13-0.51c-0.56,0.1-1.13,0.13-1.66,0.31c-3.37,1.16-4.41-1.24-4.73-3.89c-0.3-2.57-0.33-5.18-0.56-7.77
			 M-232.25,141.54c0.14-2.03,0-4.73-0.04-7.03c-0.25-2.12,0.08-1.82-0.29-3.99c0,0-0.19-2.3-0.04-4.63
			c0.22-2.72,1.63-4.52,3.73-6.04c1.95-1.4,4.06-1.32,6.26-1.3c4.17,0.05,8.34-0.03,12.52-0.03c0.72,0,1.52-0.07,2.15,0.2
			c2.98,1.31,5.91,2.73,8.85,4.11c0.11,0.05,0.2,0.18,0.31,0.19c3.3,0.12,3.57,2.41,3.92,5.1c0.27,2.05,1.5,3.97,2.27,5.95
			c0.66,1.71,1.04,3.59,1.97,5.12c1.83,3.02,3.11,6.25,3.99,9.63c0.47,1.83,0.55,3.8,0.6,5.71c0.11,4.84,0.1,9.68,0.13,14.52
			c0,0.19,0.04,0.37,0.04,0.56c-0.07,1.47,0.59,3.27-1.51,3.88c-1.5,0.44-4.02-0.8-4.78-2.34c-0.97-1.98-1.64-4.16-2.88-5.94
			c-1.98-2.84-2.54-5.97-2.97-9.31c-0.31-2.49-1.24-4.89-1.85-7.35c-0.39-1.55-0.55-3.17-1.07-4.67c-0.68-1.94-1.56-3.81-2.47-5.65
			c-0.89-1.81-1.79-3.65-2.93-5.3c-2.18-3.16-5.51-4.27-9.07-4.68c-1.68-0.19-3.41-0.06-5.11,0.02c-1.73,0.08-3.21,1.83-3.27,3.86
			c-0.16,5.09-0.25,10.19-0.42,15.28c-0.1,3.04-0.35,6.07-0.47,9.11c-0.17,4.38-0.37,8.76-0.37,13.14c0,3.33,0.47,6.67,0.43,10
			c-0.06,4.33-0.49,8.65-0.62,12.98c-0.04,1.32,0.44,2.65,0.57,3.99c0.22,2.25,0.43,4.51,0.49,6.77c0.16,5.59,0.31,11.18,0.3,16.77
			c-0.01,4.59-0.34,9.18-0.37,13.77c-0.01,2.87-0.46,5.82,0.9,8.56c0.15,0.3-0.03,0.83-0.19,1.2c-0.95,2.24-1.41,4.43-0.28,6.81
			c0.66,1.39,1.53,3.09,1.27,4.44c-0.51,2.6,0.67,5.07,0.16,7.46c-0.35,1.65-0.39,3.03,0,4.62c0.18,0.75-0.43,1.69-0.62,2.56
			c-0.15,0.68-0.43,1.46-0.24,2.05c0.33,1.01,0.47,1.74-0.2,2.75c-0.42,0.64-0.22,1.8-0.13,2.71c0.09,0.95,0.52,1.88,0.56,2.82
			c0.19,4.15,0.28,8.31,0.44,12.46c0.01,0.35,0.26,0.69,0.32,1.05c0.28,1.6,0.83,3.22,0.74,4.8c-0.16,2.78,0.42,3.59,3.11,4.17
			c4.48,0.96,8.98,1.07,13.54,1.08c12.49,0,24.98,0.23,37.46,0.21c3.12,0,6.28-0.33,9.34-0.94c2.42-0.49,2.89-2.21,1.94-4.55
			c-0.93-2.27-1.66-4.61-2.54-6.9c-0.35-0.91-0.93-1.74-1.28-2.65c-1-2.62-1.92-5.29-2.92-7.91c-1.21-3.15-2.48-6.28-3.71-9.42
			c-0.14-0.34-0.26-0.69-0.36-1.05c-0.69-2.47-1.31-4.97-2.09-7.41c-0.63-1.99-2.76-3.89-3.43-5.87c-0.76-2.28-0.07-4.63-0.88-6.89
			c-1.86-5.21-5.07-10.38-7.01-15.57c-0.08-0.22,1-0.43,0.82-0.59c-1.86-1.64-3.58-3.52-5.65-4.82c-1.84-1.16-4.03-1.82-6.14-2.44
			c-2.31-0.68-4.7-1.14-7.08-1.53c-1.48-0.25-3.02-0.29-4.53-0.28c-1.64,0.01-3.27,0.22-4.91,0.31c-2.61,0.14-3.2,0.69-3.17,3.39
			c0.03,3.22,0.19,6.43,0.24,9.65c0.05,3.03-0.23,6.1,0.11,9.1c0.4,3.46,1.34,6.85,2.01,10.28c0.23,1.18,0.45,2.19-1.26,2.69
			c-1.32,0.39-2.46,1.47-3.6,2.35c-1.55,1.2-3.33,0.86-4.64,0.11c-0.89-0.5-1.31-2.21-1.57-3.46c-1.74-8.23-0.8-16.66-1.57-24.96
			c-1.87-2.5,0.04-4.79,0.49-7.12c0.28-1.47,1.16-2.82,1.72-4.25c0.31-0.79,0.6-1.61,0.75-2.44c0.71-4.08,5.44-6.49,9.32-5.27
			c2.51,0.79,4.97,2.11,8.04,1.15c2.28-0.71,5.01,0.22,7.54,0.25c2.1,0.03,4.2-0.25,6.3-0.28c1.47-0.02,2.96,0.12,4.43,0.28
			c2.65,0.29,5.28,0.78,7.93,0.93c1.49,0.08,1.93,0.58,2.1,2.06c0.13,1.13,0.97,2.17,1.43,3.28c0.38,0.92,0.99,1.89,0.95,2.82
			c-0.15,3.57,0.7,6.79,2.43,9.88c0.73,1.32,0.98,2.91,1.48,4.37c0.74,2.15,1.52,4.3,2.27,6.45c0.04,0.12,0.05,0.25,0.1,0.36
			c1.46,2.65,2.93,5.3,4.39,7.96c0.23,0.42,0.42,0.86,0.64,1.29c0.61,1.23,1.09,2.55,1.87,3.66c0.71,1.02,1.48,1.82,1.27,3.28
			c-0.11,0.72,0.38,1.69,0.87,2.32c1.21,1.55,1.88,3.15,2.02,5.2c0.13,1.81,0.95,3.6,1.59,5.35c0.93,2.54,1.96,5.03,2.95,7.55
			c1.81,4.57,3.65,9.13,5.4,13.72c0.74,1.95,1.29,3.98,1.91,5.99c0.13,0.41,0.18,0.85,0.29,1.27c1.22,4.71-0.06,7.13-4.68,8.53
			c-2.06,0.62-4.18,1.08-6.29,1.47c-0.66,0.12-1.48-0.11-2.1-0.44c-2.26-1.19-4.28-1.03-6.69-0.01c-2.35,1-5.09,1.66-7.49-0.64
			c-0.65-0.62-1.89-0.76-2.88-0.82c-1.86-0.11-3.8-0.34-5.58,0.08c-2.98,0.69-6.03-0.28-9.04,1.07c-2.12,0.95-4.76,0.71-7.17,1
			c-0.48,0.06-1.11-0.05-1.41,0.22c-1.42,1.26-2.92,0.79-4.49,0.49c-2.19-0.42-4.4-0.7-6.6-1.06c-1.84-0.3-3.59-1.33-5.56-0.3
			c-0.58,0.3-1.53-0.18-2.31-0.25c-0.86-0.07-1.73-0.09-2.6-0.11c-0.42-0.01-0.84,0.07-1.25,0.01c-2.62-0.4-5.23-0.87-7.86-1.24
			c-5.34-0.74-7.31-1.96-8.58-8.18c-0.51-2.5,0.02-4.17,1.18-6.08c0.38-0.63,0.44-1.54,0.43-2.32c-0.01-5.47,0.06-10.95-0.16-16.41
			c-0.14-3.51-0.78-7-1.1-10.51c-0.5-5.43-1.03-10.85-1.31-16.29c-0.15-2.96,0.22-5.95,0.28-8.93c0.06-2.55-0.08-5.1,0.04-7.64
			c0.1-2.21,0.51-4.4,0.67-6.61c0.16-2.29,0.23-4.59,0.27-6.88c0.05-3.16,0.03-6.32,0.03-9.49c-0.01-7.15-0.01-14.3-0.05-21.44
			c-0.01-2.42-0.07-4.85-0.2-7.27c-0.09-1.58-0.53-3.16-0.52-4.73c0.02-1.77,0.54-3.54,0.56-5.32c0.07-5.09-0.02-10.18,0-15.27
			c0-1.11,0.32-2.23,0.24-3.33c-0.1-1.36,0.1-1.61-0.11-2.96c-0.08-0.51,0-2.34,0.05-2.86c0.19-2,0.3-3.5,0.47-5.51
			C-232.48,143.09-232.25,141.54-232.25,141.54z M-38.25,496.42"/>
		<path class="st0" d="M-628.99,532.68c0.2-2.04,1.15-4.12-0.93-6.16c-0.49,1.35-0.88,2.42-1.27,3.49
			c-0.18-0.01-0.36-0.01-0.54-0.02c-0.12-0.57-0.35-1.14-0.35-1.72c0.02-3.9,0.07-7.8,0.14-11.7c0.13-7.58,0.24-15.16,0.44-22.74
			c0.15-5.65,0.55-11.3,0.61-16.95c0.05-4.28-0.39-8.57-0.37-12.85c0.03-5.14,0.38-10.28,0.51-15.43c0.07-2.68-0.12-5.36-0.03-8.04
			c0.11-3.4,0.35-6.79,0.58-10.19c0.12-1.75,0.36-3.5,0.54-5.25c0.04-0.37,0.18-0.79,0.06-1.09c-1.05-2.65,0.32-5.28,0.02-7.92
			c-0.07-0.63,0.02-1.42,0.34-1.94c0.75-1.26,0.79-2.36-0.04-3.58c-0.24-0.35-0.39-1.02-0.24-1.38c1.45-3.35,1.03-6.9,1.17-10.4
			c0.05-1.27,0.44-2.53,0.44-3.79c-0.01-1.25-0.39-2.5-0.48-3.76c-0.22-3.13-0.32-6.26-0.22-9.42c0.1-3.33-0.21-6.64,0.6-9.97
			c0.47-1.94,0.16-4.08,0.36-6.11c0.63-6.44,1.28-12.87,1.09-19.38c-0.07-2.56,0.77-5.15,1.31-7.7c0.07-0.34,0.93-0.83,1.26-0.72
			c4.03,1.36,7.35,3.81,9.76,7.44c0.81,1.22,1.11,2.8,1.83,4.1c1.8,3.26,3.74,6.44,5.56,9.68c0.49,0.88,0.61,2.01,1.18,2.81
			c0.88,1.24,2.02,2.29,3.02,3.44c0.27,0.31,0.49,0.69,0.66,1.07c1.67,3.67,3.27,7.38,4.99,11.02c1.6,3.39,3.33,6.71,5.01,10.06
			c2.06,4.11,4.14,8.21,6.16,12.34c1.06,2.16,1.61,4.72,3.08,6.49c1.93,2.33,2.08,5.25,3.36,7.75c0.74,1.44,1.18,3.05,1.76,4.58
			c1.57,4.2,3.04,8.45,4.74,12.6c1.55,3.78,3.35,7.44,5.03,11.17c0.17,0.38,0.3,0.8,0.39,1.21c0.89,3.99,2.4,7.71,4.27,11.32
			c0.79,1.53,1.13,3.3,1.74,4.94c1.33,3.56,2.7,7.1,4.07,10.64c1.11,2.88,2.25,5.76,3.38,8.64c2.39,6.09,4.79,12.18,7.15,18.28
			c0.51,1.31,0.79,2.73,1.34,4.02c1.72,4.03,3.6,7.98,5.25,12.03c0.94,2.3,1.51,4.76,2.32,7.13c0.17,0.49,0.54,0.99,0.96,1.26
			c0.53,0.34,1.19,0.46,2.07,0.76c0.05-1.24,0.09-2.41,0.15-3.8c-1.48,0.59-1.46-0.37-1.46-1.33c-0.02-3.93-0.11-7.86-0.04-11.78
			c0.05-2.99,0.3-5.99,0.42-8.98c0.02-0.47-0.24-0.95-0.25-1.43c-0.03-1.57-0.04-3.13,0-4.7c0.02-0.6,0.31-1.21,0.26-1.8
			c-0.72-9.64,0.44-19.26,0.31-28.89c-0.03-2.51-0.02-5.03,0.13-7.54c0.28-4.69,0.65-9.38,1.03-14.07
			c0.5-6.32,0.82-12.67,1.62-18.95c1.33-10.44,0.81-20.93,1.04-31.39c0.3-13.64,0.44-27.28,0.76-40.92
			c0.07-2.77,0.64-5.53,1.03-8.28c0.2-1.39,1.19-1.24,2.2-1.08c1.13,0.18,1,0.92,0.91,1.78c-0.14,1.26-0.15,2.42,1.51,2.8
			c0.46,0.11,0.93,1.17,1,1.84c0.17,1.67,0.38,3.03,1.91,4.24c2.95,2.33,2.98,5.86,2.76,9.37c-0.4,6.51-0.89,13.03-1.05,19.55
			c-0.22,9.07-0.15,18.15-0.27,27.23c-0.03,2.02-0.48,4.03-0.53,6.06c-0.17,6.83-0.29,13.67-0.33,20.51
			c-0.01,1.92,0.09,3.83,1.21,5.62c0.47,0.76,0.03,2.19-0.14,3.29c-0.18,1.15-0.73,2.27-0.79,3.42c-0.16,3.29-0.17,6.58-0.2,9.87
			c-0.04,5.27-0.07,10.55-0.05,15.82c0.03,6.44,0.12,12.88,0.22,19.32c0.01,0.76,0.26,1.52,0.39,2.28c0.2,0.01,0.41,0.02,0.61,0.02
			c0.42-0.89,0.8-1.81,1.28-2.67c1.51-2.68,3.26-5.23,4.53-8.01c2.23-4.9,4.12-9.96,6.26-14.91c1.41-3.26,2.99-6.45,4.52-9.65
			c2.21-4.65,4.54-9.24,6.63-13.94c1.46-3.3,2.56-6.78,3.92-10.13c0.47-1.14,1.3-2.11,1.92-3.19c1.66-2.9,3.38-5.77,4.93-8.73
			c2.06-3.95,3.9-8.02,5.98-11.96c2.49-4.72,5.18-9.33,7.7-14.04c2.24-4.19,4.53-8.36,6.49-12.68c3.2-7.05,6.27-14.17,9.16-21.36
			c1.64-4.09,3.11-8.31,3.41-12.82c0.12-1.78-0.25-2.03-2.01-2c-4.38,0.07-8.76,0.02-13.13,0.01c-3.66-0.01-7.34-0.24-10.99,0.03
			c-3.68,0.27-6.48-1.24-8.97-3.72c-0.4-0.4-0.85-1.24-0.69-1.64c0.17-0.44,0.98-0.79,1.56-0.86c4.32-0.54,8.69-0.74,12.96-1.55
			c7.94-1.51,15.92-1.25,23.88-0.82c2.9,0.16,5.91,1.3,8.52,2.71c1.24,0.67,1.68,2.99,2.38,4.6c0.29,0.67,0.33,1.47,0.48,2.2
			c0.54-0.39,1.19-0.69,1.58-1.2c0.5-0.65,1.04-1.44,1.15-2.23c0.29-2.14,1.33-3.54,3.47-3.66c2.65-0.16,5.22-0.27,7.82-1.14
			c1.42-0.47,3.22,0.41,4.86,0.44c4.56,0.1,9.13,0.04,13.69,0.09c2.9,0.03,5.81,0.06,8.7,0.25c2.13,0.14,2.12,0.26,3.43,2.08
			c-0.25,0.97-0.39,1.85-0.72,2.63c-0.19,0.45-0.66,0.85-1.1,1.08c-0.33,0.17-0.82-0.01-1.23,0.05c-1.67,0.22-2.03,1.16-1.09,2.62
			c0.24,0.38,0.23,0.93,0.34,1.41c-0.48-0.08-1.08,0-1.43-0.27c-1.48-1.11-2.79-2.5-4.36-3.45c-0.92-0.56-2.19-0.49-3.38-0.32
			c0.65,0.35,1.29,0.69,1.94,1.04c-0.05,0.23-0.09,0.46-0.14,0.7c-1.83-0.1-3.67-0.07-5.48-0.32c-2.34-0.32-4.65-0.9-6.98-1.3
			c-0.62-0.11-1.29,0.06-2.07,0.1c1.16,2.11,3.28,1.03,4.78,1.71c0,0.21-0.01,0.42-0.01,0.62c-1.09,0.04-2.18,0.1-3.27,0.13
			c-2.38,0.07-2.44,0.2-2.51,2.65c-0.05,1.64-0.43,3.26-0.42,4.9c0.01,1.35,0.41,2.7,0.54,4.06c0.07,0.77,0.07,1.61-0.14,2.34
			c-0.53,1.83-1.61,3.59-1.74,5.43c-0.39,5.44-0.57,10.9-0.57,16.36c-0.01,7.16,0.3,14.33,0.32,21.49c0.01,2.48-0.46,4.95-0.69,7.43
			c-0.1,1.1-0.19,2.2-0.19,3.3c-0.01,4.13,0.08,8.26,0.01,12.39c-0.03,1.69,0.56,2.54,2.21,2.6c0.65,0.02,1.29,0.16,1.94,0.22
			c2.76,0.23,5.52,0.6,8.28,0.64c2.65,0.04,5.32-0.48,7.97-0.33c3.1,0.18,6.19,0.81,9.28,1.24c1.51,0.21,3.02,0.44,4.53,0.64
			c1.12,0.15,3.75,2.29,3.84,3.34c0.03,0.34-0.5,0.96-0.87,1.06c-1.4,0.39-2.85,0.62-4.54,0.96c0.81,1.43,1.46,2.56,3.28,2.63
			c2.2,0.08,4.39,0.48,6.58,0.81c0.33,0.05,0.67,0.45,0.9,0.77c0.55,0.76,0.91,1.76,1.6,2.32c0.95,0.76,0.75,1.23-0.01,1.83
			c-0.81,0.64-1.86,1.12-1.45,2.55c0.05,0.19-0.27,0.52-0.45,0.75c-0.59,0.74-1.63,1.18-1.17,2.53c0.1,0.3-0.45,1.09-0.84,1.24
			c-0.31,0.12-0.9-0.35-1.26-0.67c-0.34-0.31-0.56-0.77-0.95-1.33c0.49-0.25,0.92-0.46,1.71-0.86c-0.81-0.18-1.33-0.37-1.84-0.39
			c-0.98-0.03-2.21-0.27-1.77,1.35c-3.42,0.33-6.79,0.83-10.16,0.9c-1.87,0.04-3.76-0.66-5.65-0.99c-0.87-0.15-1.75-0.33-2.62-0.28
			c-4.28,0.22-8.55,0.51-12.82,0.8c-0.4,0.03-0.88,0.1-1.15,0.35c-1.8,1.69-2.65,1.97-4.85,1.41c0.03,3.14-0.02,6.26,0.1,9.37
			c0.21,5.39,0.45,10.78,0.81,16.16c0.16,2.42,0.87,4.8,0.96,7.22c0.31,8.45,0.49,16.92,0.63,25.38c0.03,1.95-0.34,3.89-0.4,5.85
			c-0.02,0.79,0.07,2.06,0.51,2.29c1.02,0.54,2.41,0.99,3.43,0.69c0.95-0.28,1.53-0.2,2.42,0.07c1.51,0.45,3.14,0.68,4.72,0.66
			c3.84-0.03,7.71,0,11.52-0.47c3.2-0.4,6.22,0.19,9.33,0.51c2.99,0.31,6.04,0.06,9.06,0.12c5.42,0.12,10.84,0.41,16.26,0.39
			c1.86-0.01,3.79-0.55,5.55-1.24c1.06-0.42,1.88-1.52,0.86-2.98c-0.39-0.56-0.51-1.35-0.69-2.05c-1.58-6.06-3.17-12.12-4.72-18.19
			c-0.52-2.05-0.86-4.14-1.43-6.17c-0.43-1.56-1.14-3.04-1.63-4.59c-1.26-3.98-2.66-7.93-3.59-11.99c-0.35-1.51,0.21-3.41,0.88-4.89
			c0.22-0.48,2.06-0.24,3.15-0.21c0.26,0.01,0.49,0.49,0.76,0.74c1.28,1.16,1.78,2.9,3.56,3.9c1.26,0.71,1.55,3.36,2.16,5.19
			c0.59,1.77,0.8,3.72,1.58,5.38c1.84,3.94,3.22,8.02,4.48,12.19c0.85,2.81,2.41,5.39,3.26,8.21c1,3.3,3.18,6.21,3.11,9.9
			c-0.01,0.65,0.72,1.5,1.33,1.95c2.01,1.5,2.45,2.7,1.91,5.27c-0.23,1.1,0.23,2.45-0.22,3.37c-0.94,1.92-2.16,3.73-3.51,5.36
			c-0.43,0.52-1.66,0.28-2.49,0.5c-0.58,0.16-1.08,0.62-1.65,0.78c-0.87,0.24-2.36,0.74-2.56,0.43c-0.79-1.25-1.94-1.13-2.99-1.23
			c-2.71-0.27-5.22-1.9-8.08-1.23c-0.93,0.22-2.06-0.07-1.44,1.63c0.08,0.23-0.76,1.07-1.29,1.24c-1.53,0.5-3.13,0.8-4.7,1.16
			c-0.28,0.06-0.69,0.15-0.85,0.01c-1.79-1.68-3.93-0.84-5.93-0.93c-1.66-0.07-3.44-0.38-4.95,0.12c-1.77,0.59-3.27,0.48-5,0.06
			c-1.06-0.26-2.29,0.31-3.45,0.4c-2.22,0.18-4.46,0.48-6.68,0.4c-4-0.14-7.99-0.53-11.99-0.76c-0.69-0.04-1.39,0.18-2.09,0.3
			c-0.4,0.07-0.87,0.41-1.17,0.28c-2.99-1.32-6.08-0.24-9.1-0.48c-1-0.08-2.01-0.13-3.01-0.25c-1.48-0.19-3.03-0.3-3.18-2.32
			c-0.25,0-0.45-0.03-0.46,0.01c-0.8,2.62-2.68,2.39-4.71,2.06c-0.97-0.16-1.99,0.1-2.98,0.09c-0.5,0-1.02-0.12-1.49-0.3
			c-0.11-0.04-0.14-0.75-0.06-0.79c0.51-0.21,1.06-0.45,1.59-0.43c1.22,0.04,2.51,0.73,3.87-0.8c-1.53-0.21-2.76-0.37-3.99-0.54
			c-0.4-0.05-0.79-0.13-1.19-0.19c0.19-0.4,0.29-0.91,0.6-1.17c0.57-0.47,1.7-0.69,1.8-1.18c0.25-1.29,0.11-2.67,0.04-4.01
			c-0.1-1.82-0.25-3.64-0.43-5.45c-0.2-2.05-0.48-4.1-0.69-6.16c-0.19-1.89-0.35-3.78-0.49-5.67c-0.03-0.36-0.09-0.82,0.08-1.07
			c1.86-2.69,0.66-5.72,0.9-8.58c0.03-0.33-0.12-0.75-0.32-1.02c-0.64-0.84-0.74-1.62-0.04-2.49c0.21-0.25,0.41-0.77,0.29-1
			c-1.06-2.13-0.16-4.18,0.06-6.28c0.09-0.88-0.23-1.81-0.35-2.71c-0.03-0.23-0.08-0.47-0.06-0.7c0.3-2.51,0.79-5.02,0.88-7.54
			c0.11-3.24-0.21-6.49-0.14-9.73c0.09-4.08,0.39-8.15,0.6-12.23c0.01-0.12,0.07-0.24,0.07-0.36c0.03-3.8,0.15-7.61,0.05-11.41
			c-0.08-2.98-0.68-5.96-0.62-8.94c0.09-5.07,0.64-10.12,0.78-15.19c0.18-6.68,0.23-13.37,0.15-20.05
			c-0.05-3.98-0.61-7.95-0.66-11.93c-0.1-9.38-0.04-18.77-0.02-28.16c0-1.34,0.22-2.69,0.21-4.03c-0.01-2.36-0.98-4.34-2.56-6.4
			c-0.34,0.58-0.7,0.98-0.82,1.45c-0.41,1.71-0.49,3.55-1.16,5.12c-0.85,1.97-2.2,3.71-3.26,5.59c-0.41,0.74-0.7,1.59-0.89,2.43
			c-0.29,1.27-0.45,2.57-0.66,3.88c0.98,0.15,2.05,0.31,3.47,0.53c-1.37,2.1-2.59,3.71-3.52,5.47c-0.75,1.42-1.13,3.06-1.76,4.56
			c-0.42,1-0.89,1.99-1.5,2.88c-2.71,3.96-5.19,8.03-7.18,12.46c-1.2,2.67-3.16,4.97-4.76,7.44c-0.22,0.34-0.31,0.76-0.46,1.15
			c-0.42,1.11-0.76,2.28-1.29,3.34c-1.51,3.04-3.1,6.03-4.66,9.04c-0.17,0.32-0.36,0.62-0.54,0.93c-1.22,2.2-2.43,4.4-3.67,6.58
			c-0.41,0.73-0.95,1.38-1.37,2.1c-2.09,3.61-4.21,7.21-6.22,10.87c-1.27,2.31-2.36,4.73-3.51,7.11c-0.36,0.75-0.67,1.54-0.65,2.25
			c0.1,0.96,0.21,1.91,0.31,2.87c-0.62-0.07-1.24-0.13-2.17-0.23c-0.14,0.9-0.32,2.05-0.52,3.37c-2.82-0.29-2.65,2.83-3.82,4.53
			c-0.93,1.36-1.39,3.08-1.97,4.67c-0.35,0.96-0.52,1.98-0.86,3.37c0,0-0.47,0.19-1.11,0.45c0.39,0.55,0.71,0.99,1.14,1.6
			c-2.07,0.76-2.18,2.69-2.94,4.35c-0.62,1.35-1.55,2.65-2.2,4.08c-0.34,0.76-0.86,1.43-1.29,2.14c-2.92,4.83-5.93,9.59-8.72,14.5
			c-1.75,3.09-3.3,6.33-4.69,9.61c-0.97,2.29-1.37,4.84-2.32,7.15c-1.34,3.28-3.07,6.38-4.39,9.67c-0.76,1.89-1.05,3.99-1.56,6
			c-0.14,0.53-0.21,1.16-0.54,1.53c-2.5,2.87-3.01,6.52-3.85,10.06c-0.14,0.57-0.95,1.46-1.33,1.4c-2.27-0.36-4.33,0.4-6.46,0.9
			c-0.58,0.13-1.54-0.04-1.83-0.45c-0.32-0.47-0.09-1.35-0.1-2.45c1.47,0.62,2.43,1.03,3.56,1.51c0.92-1.63-1.23-2.2-1.02-3.75
			c-0.67,0.52-1.07,0.83-1.89,1.47c-0.23-1.64-0.42-2.99-0.6-4.34c-0.13-0.05-0.26-0.1-0.39-0.16c-0.33,0.77-0.66,1.53-0.98,2.3
			c-0.23,0.55-0.51,1.08-0.66,1.65c-0.19,0.71-0.54,1.56-0.34,2.17c0.45,1.36-0.05,1.98-1.21,1.96c-1.81-0.02-3.61-0.31-5.42-0.41
			c-1.26-0.08-2.53-0.73-3.64,0.87c-0.42,0.61-2.1,0.43-3.19,0.38c-2.36-0.11-4.71-0.48-7.07-0.55c-3.04-0.09-6.09,0.01-9.13,0.02
			c-1.43,0-2.87,0.04-4.29-0.08c-0.39-0.03-0.89-0.53-1.07-0.94c-0.65-1.51-1.61-2.03-3.2-1.64c-0.63,0.15-1.38-0.2-2.06-0.38
			c-0.44-0.12-0.86-0.34-1.27-0.56c-0.58-0.31-1.54-0.59-1.61-1.01c-0.13-0.81,0.02-1.86,0.45-2.55c0.74-1.19,1.78-2.18,2.51-3.04
			c3.28,0.08,6.56,0.39,9.81,0.17c4.2-0.29,8.36-1.01,12.54-1.54c1.15-0.15,1.21-0.68,0.91-1.77c-0.67-2.49-1.35-4.9-0.07-7.61
			c0.62-1.3,0.03-3.32-0.28-4.96c-0.39-2.08-1.07-4.1-1.6-6.15c-0.72-2.77-1.35-5.58-2.14-8.32c-0.87-3.02-1.84-6.01-2.9-8.97
			c-0.19-0.53-1.17-0.71-1.56-1.23c-1.25-1.67-2.55-3.33-3.52-5.17c-1.2-2.28-2.06-4.76-3.14-7.12c-0.2-0.43-0.74-0.68-1.25-1.12
			c2.67-3.4,0.04-6.04-1.29-8.89c-0.84-1.8-1.77-3.57-2.53-5.41c-1.02-2.46-3.67-4.14-6.25-3.9c-2.6,0.24-5.2,0.38-7.79,0.64
			c-1.16,0.12-2.3,0.51-3.47,0.66c-1.33,0.17-2.68,0.24-4.03,0.3c-1,0.05-2.01,0.03-3.01,0.03c-1.7,0.01-3.41,0.02-5.11,0.03
			c-1.46,0.01-2.94,0.16-4.39,0.01c-1.69-0.18-3.35-0.64-5.03-0.92c-1.78-0.3-2.8,0.58-2.82,2.49c-0.08,7.29-0.18,14.58-0.18,21.87
			c0,5.63,0.1,11.27,0.21,16.9c0.09,4.35,0.3,8.7,0.4,13.05c0.03,1.53-0.1,3.06-0.17,4.59c-0.09,1.9,0.28,3.63,0.89,5.5
			c0.76,2.34,0.53,5.04,0.67,7.59c0.01,0.27-0.37,0.56-0.89,1.3c-0.45-1.48-0.77-2.56-1.09-3.63c-0.14-0.01-0.28-0.01-0.41-0.02
			c-0.18,1.44-0.58,2.9-0.5,4.33c0.13,2.27-1.1,4.61,0.28,6.86c0.09,0.15-0.6,1.13-1.06,1.27c-1.57,0.47-2.89,1.04-3.85,2.64
			c-0.74,1.23-2.13,0.69-2.92-0.21c-1.47-1.66-0.77-1.88-2.31-2.48C-628.81,534.35-629.45,533.77-628.99,532.68z M-589.28,433.65
			c0.62-0.12,1.55-1.15,1.51-1.69c-0.11-1.19-0.7-2.36-1.18-3.5c-2.13-5.12-4.52-10.14-6.38-15.36c-1.54-4.31-2.48-8.85-3.71-13.28
			c-0.22-0.79-0.44-1.67-0.92-2.3c-1.4-1.82-1.66-3.91-1.76-6.09c-0.03-0.7-0.01-1.67-0.43-2.05c-1.58-1.42-2.23-3.27-2.88-5.18
			c-0.44-1.3-0.98-2.58-1.65-3.77c-1.69-3-3.95-5.76-5.1-8.95c-1.09-3.02-4.03-3.35-5.42-5.64c-0.11,0.12-0.23,0.24-0.34,0.35
			c-0.35,3.45-0.89,6.9-1.02,10.36c-0.22,5.65-0.22,11.3-0.22,16.96c0,1.25,0.28,2.52,0.6,3.73c1.29,4.92,2.79,9.8,1.15,14.96
			c-0.18,0.55-0.09,1.19-0.12,1.79c-0.14,3.24-0.26,6.49-0.43,9.73c-0.14,2.68-0.4,5.36-0.45,8.04c-0.01,0.45,0.75,1.24,1.22,1.31
			c2.44,0.34,4.9,0.6,7.36,0.68 M-605.65,442.65c1.02,0.05,2.04,0.1,3.06,0.15c1.7,0.09,3.52-0.2,5.06,0.35
			c2.64,0.93,5.17,0.63,7.78,0.23c0.63-0.1,1.27-0.13,1.9-0.16c1.4-0.05,2.8-0.08,4.2-0.12c-0.01-0.22-0.02-0.45-0.03-0.67
			C-590.96,440.42-598.27,441.45-605.65,442.65z M-551.14,518.96c0.02-3.23-2.29-5.35-2.9-8.15c-0.22,0.05-0.44,0.11-0.67,0.16
			c0.41,2.63,0.82,5.26,1.23,7.86C-552.73,518.87-552.09,518.91-551.14,518.96z M-408.06,436.56c-1.73-1.26-6.42-1.05-7.36,0.35
			C-412.92,437.32-410.58,437.51-408.06,436.56z M-398.35,436.6c1.32,0.34,2.64,2.04,4.26-0.04
			C-395.74,436.58-397.04,436.59-398.35,436.6z"/>
		<path class="st0" d="M-438.7,236.16c-0.12-1.22-0.05-2.47-0.02-3.7c0.01-0.38,0.21-0.76,0.18-1.13c-0.33-4.94-0.75-9.88-1-14.82
			c-0.1-2.05,0.22-4.12,0.24-6.19c0.04-6.85,0.12-13.7,0-20.55c-0.11-6.31-0.69-12.61-0.66-18.92c0.06-11.76,0.31-23.52,0.69-35.27
			c0.13-3.91,0.83-7.8,1.39-11.68c0.4-2.8,2.07-4.99,4.34-6.12c3.48-1.73,7.19,0.24,8.75,3.98c2.24,5.37,4.17,9.54,5.91,13.63
			c2.47,5.79,4.9,11.59,7.35,17.39c2.65,6.26,5.34,12.49,7.93,18.77c1.28,3.11,2.33,6.31,3.57,9.44c0.92,2.31,1.98,4.56,2.95,6.85
			c1.26,3,2.53,5.99,3.72,9.02c1.74,4.45,3.32,8.98,5.13,13.39c1.99,4.83,4.26,8.25,6.27,13.07c1.07,2.58,1.7,6.64,2.81,9.2
			c2.45,5.65,5.07,11.22,7.63,16.82c0.1,0.23,0.24,0.47,0.41,0.63c3.57,3.29,4.98,7.8,6.47,12.3c1.46,4.42,3.13,8.76,4.7,13.13
			c0.69,1.9,1.29,3.85,2.1,5.7c1.81,4.13,3.77,8.19,5.57,12.33c0.58,1.33,0.79,2.83,1.27,4.21c0.92,2.65,1.95,5.26,2.88,7.91
			c1.22,3.44-1.53,8.29-4.95,8.86c-2.6,0.43-5.18,1-7.79,1.33c-1.19,0.15-2.48,0.06-3.62-0.28c-3.2-0.95-6.33-0.68-9.6-0.34
			c-3.84,0.4-7.69,0.82-11.67-0.51c-2.62-0.87-4.52-1.85-5.72-4.55c2.64-2.58,5.85-3.49,9.57-4.05c5.16-0.78,10.55-0.53,15.47-2.87
			c0.86-0.41,1.32-0.75,0.96-1.86c-0.13-0.41,0.18-1.17,0.52-1.53c1.57-1.68,0.48-4.81-1.05-5.93c-1.33-0.98-2.35-1.94-1.95-3.92
			c0.15-0.74-0.19-1.67-0.5-2.42c-1.03-2.51-2.22-4.95-3.21-7.47c-0.78-1.97-1.36-4.03-2.03-6.04c0.15-0.06,0.31-0.13,0.46-0.19
			c0.5,0.38,0.99,0.77,1.49,1.15c0.12-0.12,0.24-0.24,0.36-0.36c-0.85-1.42-1.41-3.29-2.62-4.15c-2.51-1.78-2.94-4.64-3.98-7.13
			c-0.79-1.89-0.79-4.13-1.45-6.1c-0.67-2.01-1.68-3.89-2.58-5.81c-0.99-2.11-2.05-4.18-3.06-6.28c-1.37-2.84-2.83-5.64-4.02-8.56
			c-0.76-1.87-1.13-3.92-1.65-5.89c-0.36-1.37-0.67-2.39-2.52-1.69c-0.94,0.36-2.49,0.07-3.3-0.57c-2.18-1.73-4.68-1.5-7.06-1.56
			c-6.15-0.16-12.31-0.11-18.47-0.01c-1.7,0.03-3.39,0.5-5.08,0.75c-1.14,0.17-1.73,0.77-1.78,2.04c-0.3,7.88-1.08,15.78-0.81,23.64
			c0.2,5.64-0.44,11.19-0.65,16.76c-0.21,5.67,0.21,11.27,0.43,16.89c0.08,2.04,0.57,4.06,0.68,6.09c0.07,1.25-0.31,2.52-0.37,3.79
			c-0.08,1.72,0.01,3.44-0.08,5.16c-0.05,1.06-0.24,2.12-0.44,3.17c-0.18,1-0.5,1.97-0.66,2.97c-0.19,1.2-0.65,2.01-1.88,2.32
			c-0.51,0.13-0.89,0.76-1.36,1.1c-0.8,0.58-1.67,1.05-2.43,1.68c-0.52,0.42-0.88,1.04-1.35,1.54c-0.38,0.41-0.8,0.78-1.21,1.17
			c-0.16-0.5-0.46-1.01-0.46-1.51c-0.06-4.3-0.12-8.6-0.06-12.9c0.05-3.36,0.32-6.71,0.41-10.07c0.2-7.37,0.36-14.74,0.5-22.12
			c0.13-6.97,0.24-13.95,0.31-20.92c0.02-1.67-0.09-3.36-0.28-5.02C-438.74,242.39-438.7,236.16-438.7,236.16z M-439.2,244.02
			c-0.67,1.9-0.99,3.98-1.84,5.77c-0.82,1.74-2.11,3.23-3.24,4.8c-2.82,3.88-5.67,7.74-8.5,11.62c-2.64,3.63-5.71,6.74-9.3,9.32
			c-1.49,1.08-2.62,2.72-4.02,3.98c-1.86,1.68-3.76,3.33-5.76,4.82c-1.5,1.11-3.15,1.99-4.77,2.91c-1.01,0.57-2.13,0.95-3.12,1.56
			c-0.78,0.48-1.41,1.24-2.15,1.81c-2.43,1.88-4.81,3.85-7.35,5.53c-1.39,0.92-3.08,1.31-4.62,2.01c-0.79,0.36-1.71,0.67-2.25,1.31
			c-2.74,1.95-3.97,2.08-6.22,3.48c-3.42,2.14-3.42,2.14-6.68,3.63c-1.82,1.45-5.77,3.55-8.03,4.34c-2.07,0.72-4.82,2.54-6.92,3.14
			c-0.42,0.12-3.13,1.98-3.28,1.71c-0.98-1.74-3.02-6.54-3.58-8.45c-1.08-3.64-2.29-7.36-2.58-11.12
			c-0.53-6.74-0.77-13.54,0.64-20.28c0.54-2.58,0.33-5.33,0.55-7.99c0.09-1.08,0.41-2.14,0.61-3.21c0.14-0.78,0.57-1.69,0.33-2.33
			c-1.02-2.81,0.92-5.38,0.47-8.14c-0.06-0.36,0.96-1.28,1.51-1.31c1.38-0.08,2.83,0.02,4.15,0.41c0.59,0.17,1.27,1.17,1.38,1.88
			c0.52,3.42,1.02,6.87,1.21,10.32c0.17,2.98-0.11,5.98-0.13,8.97c-0.02,3.15-0.31,6.33,1.11,9.31c0.2,0.42-0.06,1.08-0.07,1.63
			c-0.01,1.08,0,2.15,0.02,3.23c0,0.18,0.17,0.36,0.16,0.53c-0.14,2.58-0.32,5.16-0.44,7.75c-0.04,0.84,0.09,1.68,0.15,2.53
			c0.75-0.17,1.49-0.41,2.25-0.49c2.41-0.24,4.06-2.68,6.84-2.3c1.45,0.2,3.19-0.97,4.63-1.85c5.32-3.24,10.56-6.64,15.87-9.92
			c2.11-1.31,4.35-2.38,6.44-3.73c0.72-0.47,1.13-1.48,1.74-2.19c0.29-0.34,0.69-0.58,1.07-0.83c1.49-0.97,3.02-1.89,4.49-2.9
			c0.78-0.53,1.52-1.16,2.17-1.85c2.75-2.9,5.41-5.89,8.2-8.74c0.92-0.94,2.15-1.54,3.19-2.36c2.98-2.35,5.21-5.34,6.91-8.86
			c0.62-1.29,1.82-2.25,2.6-3.47c2.21-3.43,3.83-6.85,3.23-11.44c-0.45-3.46-2.66-4.58-4.65-6.17c-2.96-2.36-6-4.64-9.16-6.69
			c-1.15-0.74-2.75-0.65-4.12-1.04c-0.58-0.16-1.26-0.44-1.61-0.91c-0.86-1.12-1.74-2.01-3.21-1.85c-0.29,0.03-0.64,0.08-0.87-0.05
			c-3.06-1.77-6.57-1.32-9.77-2.33c-0.76-0.24-1.42-1.04-2.02-1.69c-1.17-1.27-2.35-2-4.14-1.25c-1.35,0.56-2.69,0.39-3.64-1.23
			c-0.37-0.64-1.33-0.91-2.06-1.28c-0.88-0.45-1.79-0.84-2.69-1.25c0.53-0.98,0.9-2.11,1.61-2.91c1.86-2.1,3.88-4.04,5.82-6.06
			c0.62-0.65,1.17-1.39,1.76-2.07c0.65-0.74,1.12-1.34,0.69-2.59c-0.66-1.91,0.99-3.09,1.96-4.27c1.78-2.17,3.79-4.12,5.78-6.09
			c1.21-1.2,2.65-2.15,3.8-3.41c0.87-0.95,1.57-2.13,2.12-3.32c1.25-2.69,2.37-5.46,3.5-8.21c0.12-0.3,0.14-0.88-0.04-1.04
			c-1.22-1.13-1.58-3.28-3.64-3.46c-0.43-0.04-0.88-0.57-1.22-0.97c-3.4-3.88-6.81-7.77-10.16-11.7c-1.2-1.41-2.2-3.02-3.45-4.38
			c-0.74-0.81-1.99-1.12-2.66-1.97c-1.8-2.27-4.57-2.94-6.58-4.87c-1.59-1.52-3.28-3.08-5.19-4.02c-3.39-1.69-6.44-4.65-10.64-3.83
			c0.07,0.16,0.13,0.33,0.2,0.49c-0.56,0.36-1.09,0.96-1.68,1.04c-1.35,0.19-1.55,0.98-1.49,2.22c0.07,1.54,0.01,3.1-0.05,4.64
			c-0.02,0.4-0.19,1.03-0.44,1.13c-1.51,0.63-1.62,2.23-1.77,3.42c-0.66,5.48-1.42,10.99-1.51,16.51
			c-0.08,4.94,0.68,9.89,1.07,14.84c0.01,0.19,0.1,0.39,0.06,0.55c-0.2,0.8-0.22,1.96-0.72,2.28c-0.45,0.29-1.76-0.08-2.09-0.6
			c-1.18-1.82-2.52-2.15-4.32-1.21c-0.32,0.17-0.86,0.11-1.2-0.07c-0.67-0.35-1.27-0.86-1.9-1.3c0.51-0.57,0.92-1.39,1.54-1.66
			c1.18-0.51,1.18-1.3,1-2.39c-0.73-4.26-1.57-8.51-2.06-12.81c-0.34-2.97-0.2-6-0.25-9.01c-0.1-5.92-0.25-11.84-0.33-17.77
			c-0.05-3.84-0.17-7.68-0.05-11.51c0.06-1.97,0.39-3.97,0.84-5.89c0.45-1.93,3.36-3.07,5.22-2.68c3.7,0.79,6.34,3.69,9.68,5.18
			c2.61,1.17,5.14,2.53,7.74,3.72c4.18,1.92,8.1,4.26,11.93,6.91c3.8,2.63,6.91,6.09,10.4,9.06c3.86,3.29,7.38,7.09,10.8,10.92
			c3.52,3.94,6.78,8.14,10.08,12.3c0.52,0.66,0.68,1.68,0.9,2.55c0.35,1.39,0.71,2.78,0.97,4.19c0.55,2.93,1.14,5.86,1.51,8.82
			c0.18,1.47,0.05,2.98,0.03,4.48c-0.04,2.96-2.73,4.09-4.02,5.98c-1.83,2.69-3.9,5.21-6.53,7.14c-2.62,1.92-4.77,4.4-6.89,6.89
			c-0.74,0.87-1.01,1.73,0.29,2.35c0.74,0.35,1.46,0.75,2.2,1.1c2.91,1.38,5.79,2.82,8.74,4.1c1.76,0.77,3.72,1.07,5.42,1.95
			c2.01,1.03,3.84,2.46,5.75,3.72c0.87,0.57,1.71,1.19,2.59,1.75c0.58,0.37,1.13,0.78,1.61,1.28c3.89,4.09,7.82,8.14,11.55,12.39
			c1.11,1.26,1.84,2.9,2.65,4.46c0.33,0.64,0.88,1.15,1.55,1.45l-0.01,0.36l-0.07,1.98C-437.7,242.91-438.87,242.97-439.2,244.02z
			 M-427.89,143.43c-0.16,0.04-0.33,0.07-0.49,0.11c-0.13,0.68-0.37,1.36-0.37,2.03c0.03,7.09-0.76,14.16-0.41,21.27
			c0.08,1.69-0.57,3.42-0.56,5.13c0.04,6.67-0.34,13.32,0.49,20.02c0.74,5.94,0.59,12,0.79,18.01c0.07,1.94,0.87,2.88,2.44,2.88
			c7.47-0.02,14.93-0.06,22.4,0.04c1.58,0.02,2.12-0.57,1.7-2.03c-0.53-1.86-1.19-3.68-1.91-5.47c-1.66-4.18-2.04-8.78-4.01-12.89
			c-1.32-2.75-2.1-5.79-3.05-8.73c-0.83-2.61-1.5-5.27-2.36-7.87c-0.34-1.05-0.98-1.99-1.52-2.95c-0.29-0.52-0.78-0.95-0.96-1.5
			c-0.66-2.02-1.24-4.06-1.82-6.1c-0.36-1.28-0.48-2.68-1.04-3.85c-1.17-2.43-2.62-4.71-3.83-7.12c-1.22-2.44-2.24-4.99-3.44-7.45
			C-426.42,145.73-427.19,144.61-427.89,143.43z M-419.71,220.77c0.1,0.24,0.2,0.49,0.3,0.73c6.88,0.16,13.75,0.33,20.63,0.47
			c1.11,0.02,1.38-0.74,1.24-1.75c-0.18-1.34-1.08-1.66-2.17-1.63c-3.73,0.1-7.46,0.18-11.18,0.33c-2.1,0.08-4.2,0.15-6.27,0.47
			C-418.06,219.53-418.87,220.29-419.71,220.77z"/>
	</g>
	<g id="A2_12_">
		<path class="st0" d="M215.09,307.94c-5.87,3.01-11.36,5.94-16.95,8.65c-3.04,1.47-3.94,3.78-3.13,6.77
			c6.07,22.53,5.53,45.61,6.01,68.62c0.3,14.52,0.9,29.03,1.53,43.53c0.18,4.11,1.13,8.18,1.42,12.29c0.31,4.54-1.38,8.07-6,9.68
			c-5.05,1.77-8.07,5.66-10.57,10.11c-1.28,2.29-2.55,4.6-4.02,6.76c-3.27,4.84-9.08,5.77-13.17,1.7c-1.25-1.25-1.03-4.03-1.35-6.12
			c-0.38-2.5-0.25-5.15-1.01-7.51c-1.39-4.32-3.28-8.49-4.96-12.72c-0.34,0.03-0.69,0.07-1.03,0.1c0,2.27,0.35,4.6-0.1,6.78
			c-0.44,2.15-1.68,4.14-2.57,6.2c-0.54-0.04-1.07-0.07-1.61-0.11c-0.52-2.16-1.46-4.31-1.49-6.47c-0.15-14.15-0.1-28.31-0.13-42.47
			c-0.04-17.61-3.28-34.81-6.38-52.05c-1.68-9.34-2.98-18.76-4.26-28.17c-0.89-6.56-2.38-8.34-8.24-6.75
			c-19.14,5.2-38.79,7.33-58.31,10.23c-4.67,0.69-7.61,2.92-9.54,7.25c-5.03,11.3-10.45,22.42-15.49,33.71
			c-1.67,3.74-2.67,7.79-3.98,11.69c-1.65,4.89-4.68,6.69-9.54,5.01c-6.95-2.41-13.84-5.01-20.59-7.91
			c-5.24-2.24-7.4-6.79-5.21-12.01c3.04-7.23,6.65-14.26,10.44-21.14c17.19-31.18,34.54-62.27,51.82-93.4
			c16.37-29.49,32.8-58.94,49.04-88.5c8.24-14.98,16.16-30.14,24.17-45.25c3.99-7.53,7.15-8.86,15.17-6.5
			c1.96,0.58,4.19,0.57,6.27,0.39c5.11-0.43,6.58,0.25,7.12,5.22c1.43,13.3,3.01,26.61,3.68,39.96c1.54,30.89,2.58,61.81,3.83,92.72
			c0.02,0.46,0.14,0.92,0.25,1.55c2.12-1.1,3.96-2.52,6.02-3.03c4.79-1.18,7.95,0.55,10.87,5.23c2.51,4.03,5.08,8.01,7.67,11.99
			c0.57,0.88,1.36,1.61,2.97,2.17c0.07-1.26,0.29-2.54,0.19-3.78c-0.96-11.96-2.37-23.9-2.86-35.88
			c-0.59-14.38-0.9-28.81-0.41-43.19c0.4-11.85,2.26-23.64,3.19-35.48c0.28-3.57-0.2-7.23-0.63-10.82
			c-0.56-4.66,1.21-7.96,5.26-9.11c3.48-0.99,6.26,0.61,8.01,4.95c3.45,8.57,6.84,17.17,10.07,25.83c1.14,3.06,2.64,4.96,6.26,4.48
			c3.48-0.47,5.26,1.66,6.3,4.67c2.04,5.92,3.08,11.6,1.89,18.21c-1.41,7.78-0.38,15.98-0.55,23.99c-0.63,29.8-1.3,59.6-1.98,89.4
			c-0.29,12.48,1.2,24.7,5.03,36.61c0.65,2.01,1.04,4.12,1.41,6.2c0.58,3.28,2.53,4.47,5.66,3.82c4.65-0.97,9.27-2.01,13.9-3.07
			c13.64-3.13,27.25-6.33,40.91-9.37c2.91-0.65,5.94-0.9,8.93-1.11c3.8-0.28,6.8,1.69,8.2,5.81c3.14,9.21,6.17,18.46,8.98,27.77
			c1.4,4.64-1.02,7.82-6.76,10.57c-8.17,3.92-16.97,4.93-25.78,6.01c-17.13,2.1-34.25,4.32-51.39,6.36
			c-5.84,0.69-11.72,1.06-17.59,1.44c-6.32,0.42-9.87-4.28-13.78-8c-3.24-3.09-6.02-6.67-8.92-10.1c-2.7-3.2-3.63-7.14-2.46-10.94
			c4.03-13.04,3.04-26.22,1.92-39.47C216.03,324.02,215.63,316.05,215.09,307.94z M129.91,206.68c0.51,0.16,1.02,0.32,1.52,0.48
			c0,3.23,0.6,6.61-0.11,9.67c-2.1,8.98-3.89,18.17-7.35,26.65c-4.04,9.88-9.54,19.19-14.78,28.54c-1.53,2.74-4.13,4.8-7.85,5.1
			c-3.23,0.26-5.21,2.67-7.34,5.93c2.77-0.28,4.72-0.16,6.47-0.7c11.31-3.49,22.6-7.09,33.86-10.74c3.11-1.01,4.55-3.31,4.4-6.62
			c-0.34-7.5-0.46-15.01-1.01-22.5c-0.8-10.95-1.86-21.89-2.94-32.82c-0.1-1.03-1.27-1.92-1.79-2.95c-0.65-1.3-1.71-2.72-1.61-4.02
			c0.38-5.11,1.22-10.18,1.71-15.28c0.14-1.47-0.31-3-0.49-4.5c-0.37-0.11-0.74-0.21-1.1-0.32c-0.86,1.2-1.95,2.3-2.52,3.62
			c-1.02,2.39-1.9,4.86-2.51,7.38c-0.75,3.07-1.08,6.23-1.77,9.31c-0.23,1.04-0.81,2.25-1.62,2.84c-0.77,0.56-2.05,0.41-4.22,0.74
			c0.14,2.13,0.35,4.69,0.46,7.26c0.05,1.05,0.28,2.68-0.26,3.06c-5.46,3.83-7.95,9.36-9.57,15.52c-0.2,0.78-0.93,1.51-1.58,2.06
			c-5.77,4.84-8.17,11.77-11.51,18.17c-6.4,12.28-9.9,26.24-21.01,35.95c4.54,1.02,7.18,0.06,9.66-3.92
			c3.24-5.19,6.38-10.46,9.22-15.87c2.71-5.15,4.61-10.74,7.53-15.74c3.88-6.64,8.65-12.75,12.59-19.36
			c3.45-5.78,6.15-11.99,9.42-17.88C125.59,212.59,127.86,209.7,129.91,206.68z M144.01,316.36c-9.7-1.23-33.76,5.68-35.92,9.96
			c0.54,0,1.04,0.09,1.5-0.01c10.11-2.14,20.24-4.22,30.3-6.55C141.24,319.46,142.28,317.85,144.01,316.36z M150.05,265.99
			c3.43-2.7,2.97-5.53,2.41-8.39c-2.06-10.53-4.53-21.02-3.44-31.9c0.09-0.87-0.31-1.78-0.49-2.68c-0.39,0.04-0.78,0.08-1.16,0.12
			C146.12,237.35,147.42,251.41,150.05,265.99z M145.17,157.03c-2.96,4.44-3.86,9.92-2.21,11.97
			C147.71,165.97,145.57,161.61,145.17,157.03z"/>
		<path class="st0" d="M681.17,235.53c-1.64-2.85-3.12-5.13-4.33-7.55c-3.68-7.37-7.21-14.81-10.89-22.18
			c-0.63-1.26-1.71-2.29-2.83-3.74c-0.52,3.01,15.37,38.43,18.67,42.12c0.54-0.86,1.1-1.6,1.51-2.41
			c17.62-35.34,35.22-70.69,52.86-106.03c1.73-3.46,3.73-6.78,5.59-10.18c2.02-3.71,5.19-5.97,9.1-7.35c2.75-0.97,4.8-0.22,5.6,2.61
			c1.93,6.81,7.28,8.89,13.39,9.5c9.95,0.99,11.72,2.84,13.54,12.92c2,11.06,4.9,21.96,6.82,33.04c3.67,21.17,7.44,42.35,10.2,63.65
			c3.73,28.77,6.87,57.63,9.62,86.51c1.53,16.06,1.7,32.25,2.54,48.38c1.44,27.63,2.78,55.27,4.42,82.89
			c1.01,16.99,2.39,33.97,3.86,50.92c0.43,4.95,1.67,9.83,2.69,14.72c1.48,7.1-0.36,9.31-7.45,9.13c-6-0.16-12.03-0.35-18.02,0.03
			c-6.55,0.41-12.59-3.92-13.48-11.45c-1.87-15.89-4.76-31.65-6.85-47.51c-1.06-8.04-1.18-16.2-1.94-24.28
			c-0.97-10.21-2.16-20.4-3.26-30.6c-0.08-0.75-0.27-1.51-0.17-2.24c1.75-13.34-1.7-26.07-4.26-38.95
			c-1.23-6.22-1.16-12.69-2.17-18.96c-3.84-23.8-8.79-47.46-11.61-71.37c-2.92-24.7-4.01-49.63-5.58-74.48
			c-0.96-15.1-1.05-30.23-4.43-45.14c-1.19-5.24-0.3-10.94-0.41-16.42c-0.04-2.36-0.09-4.73-0.36-7.08
			c-0.08-0.72-0.89-1.36-1.37-2.04c-0.7,0.59-1.7,1.04-2.05,1.8c-2.72,5.9-5.17,11.92-7.96,17.78
			c-5.85,12.28-11.89,24.47-17.77,36.73c-1.29,2.69-2.46,5.49-3.28,8.35c-2.4,8.34-5.92,16.1-10.36,23.59
			c-1.6,2.71-1.21,6.64-1.54,10.03c-0.31,3.16-0.62,6.35-0.46,9.5c0.13,2.6,0.95,5.17,1.53,8.08c4.13-6.49,8.08-11.93,11.22-17.8
			c5.2-9.7,9.59-19.77,11.61-30.73c0.29-1.6,1.55-3.07,2.54-4.48c2.53-3.6,5.17-7.12,8.41-11.56c-1.72,0.81-2.48,1.17-3.62,1.7
			c1.65-6.63,6.3-9.91,12.49-13.44c-0.29,2.63-0.05,4.54-0.73,6.02c-5.59,12.14-11.39,24.18-17.06,36.28
			c-6.67,14.25-13.31,28.51-19.88,42.8c-1.15,2.5-2.67,3.58-5.54,3.25c-4.85-0.57-9.74-0.93-14.61-1.07
			c-4.74-0.14-7.47-2.49-9.41-6.67c-7.17-15.53-14.53-30.99-21.85-46.45c-0.89-1.88-1.97-3.68-2.96-5.51
			c-0.36,0.03-0.73,0.05-1.09,0.08c-0.77,4.98-1.76,9.93-2.28,14.94c-2.07,20.03-4.95,40.04-5.74,60.13
			c-1.23,31.02-0.99,62.1-1.38,93.16c-0.01,0.63,0.01,1.25-0.01,1.88c-0.17,7.47-3.89,11.83-10.46,12.24
			c-8.56,0.53-13.12-2.88-14.55-10.5c-7.42-39.4-7.64-79.23-6.26-119.03c0.62-18.06,4.01-36.02,5.99-54.05
			c1.77-16.16,3.34-32.34,4.99-48.51c0.22-2.12,0.54-4.24,0.55-6.35c0.02-4.61,1.99-8.19,6.13-9.92c4.25-1.77,7.87,0.61,10.81,3.44
			c3.09,2.99,6.27,5.29,10.45,6.84c3.4,1.26,6.59,4.15,8.91,7.08c7.38,9.33,11.88,20.06,15,31.57c3,11.06,6.96,21.87,10.75,32.71
			C683.85,229.17,683.59,231.92,681.17,235.53z M778.31,281.22c0.17-2.9,0.5-5.8,0.47-8.69c-0.09-8.38,0.09-16.8-0.61-25.14
			c-0.96-11.33-2.59-22.6-4.02-33.89c-1.44-11.41-2.8-22.83-4.57-34.19c-0.58-3.73-2.3-7.28-3.5-10.91
			c-0.57,0.15-1.15,0.29-1.72,0.44c0.36,3.38,0.7,6.77,1.08,10.15c2.17,19.63,4.35,39.26,6.54,58.89
			c1.62,14.51,1.98,29.21,6.34,43.32c-0.2,3.45-0.9,6.96-0.51,10.35c1.34,11.92,3.72,23.75,4.47,35.7c1.27,20.23,2,40.52,2.2,60.79
			c0.27,26.31,1.88,52.51,4.71,78.64c1.54,14.27,3.84,28.47,5.75,42.7c0.55,4.14,0.92,8.31,1.38,12.47c0.5,0.09,1,0.17,1.49,0.26
			c0.67-2.44,1.99-4.91,1.87-7.3c-0.29-5.96-1.16-11.89-1.94-17.81c-0.87-6.69-2.25-13.33-2.73-20.04c-0.47-6.67-0.1-13.4-0.1-20.27
			c0.81,0.16,1.59,0.31,2.58,0.5c0.81-5.48,2.89-10.99-3.22-14.95c2.1-2.97,4.38-5.79,1.46-9.6c-0.74,3.03-1.4,5.7-2.05,8.37
			c-0.5-0.06-1-0.12-1.51-0.19c-0.68-7.14-1.39-14.27-2.01-21.42c-0.05-0.53,0.35-1.38,0.79-1.61c2.93-1.55,3.19-4.51,3.82-7.19
			c0.21-0.92-0.41-2.03-0.66-3.05c-0.31,0.09-0.63,0.18-0.94,0.26c-0.47,1.02-0.94,2.04-1.41,3.06c-0.47-0.1-0.94-0.21-1.41-0.31
			c0.55-5.24,1.12-10.48,1.65-15.72c0.15-1.47,0.37-2.97,0.22-4.42c-0.95-9.06-2.24-18.09-2.94-27.17
			c-0.59-7.59,0.08-15.32-0.87-22.85c-2.42-19.21-5.43-38.34-8.29-57.49C780.02,282.28,778.92,281.8,778.31,281.22z M755.21,197.9
			c-0.44,0.07-0.88,0.13-1.32,0.2c2.35,25.38,4.5,50.79,7.12,76.15c2.63,25.4,6.25,50.67,11.3,75.74
			C768.83,299.01,765.1,248.09,755.21,197.9z M631.79,170.77c-2.46,5.37-6.82,51.03-4.88,53.52c1.01-2.55,1.63-5.2,2.2-7.86
			c0.8-3.73,1.49-7.49,2.38-11.19c0.56-2.32,1.93-4.55,2-6.84c0.25-7.48,0.15-14.98-0.01-22.47
			C633.45,174.45,632.54,172.98,631.79,170.77z M629.33,226.89c-4.17-0.24-4.6,0.07-4.84,3.33c-0.28,3.74-0.54,7.48-0.69,11.23
			c-0.11,2.67-0.02,5.35-0.02,8.03c0.3,0.1,0.61,0.2,0.91,0.3c0.48-1.08,1.2-2.12,1.41-3.26c0.77-4.24,1.37-8.51,2.06-12.77
			C628.52,231.48,628.93,229.22,629.33,226.89z M622.58,256.64c-0.75,12.05-4.14,24.05-1.41,36.17c0.47,0.01,0.94,0.02,1.41,0.02
			C622.58,280.77,622.58,268.7,622.58,256.64z M783.56,280.72c0.5-0.03,0.99-0.05,1.49-0.08c-0.07-6.3,0.45-12.63-0.76-18.87
			c-0.54,0.03-1.08,0.06-1.62,0.08C782.96,268.15,783.26,274.44,783.56,280.72z M794.5,431.57c0.54,0.06,1.08,0.13,1.62,0.19
			c0.18-3.2,0.36-6.39,0.53-9.59c-0.45-0.03-0.89-0.05-1.34-0.08C794.75,425.23,792.21,428.2,794.5,431.57z"/>
		<path class="st0" d="M367.02,395.56c-2.85-1.2-4.78-2.08-6.76-2.82c-6.08-2.27-8.05-4.92-8.08-11.52
			c-0.06-16.16-0.13-32.32,0.02-48.48c0.07-7.81-0.53-15.45-2.61-23.01c-0.81-2.97-0.86-6.18-0.97-9.29
			c-0.65-18-1.22-36.01-1.86-55.22c-3.65,2.2-6.22,3.74-8.79,5.29c-0.64,0.39-1.25,0.84-1.88,1.25c-6.86,4.4-9.16,4.96-14.36-1.92
			c-3.99-5.28-8.34-10.3-12.3-15.62c-3.27-4.39-2.86-8.07,1.48-11.39c18.56-14.21,38.64-24.67,62.71-25.69
			c9.63-0.41,19.22-1.89,28.81,0.15c6.8,1.45,13.32,3.61,17.98,9.18c0.98,1.17,1.47,2.82,1.93,4.32c1.51,4.84,2.2,10.08,4.48,14.52
			c7.33,14.32,6.58,28.11-1.28,41.83c-0.92,1.6-1.69,3.29-2.85,5.54c2.62,0.16,4.7,0.47,6.77,0.4c10.66-0.37,20.06,2.77,27.42,10.57
			c2.1,2.23,3.21,5.54,4.31,8.52c1.59,4.3,2.08,9.12,4.21,13.09c7.53,14.03,5.76,27.73-0.55,41.42c-1.35,2.94-3.07,5.72-4.8,8.47
			c-0.74,1.18-1.93,2.08-2.91,3.11c-0.42-0.16-0.83-0.31-1.25-0.47c0.39-2.51,0.79-5.02,1.34-8.52
			c-10.75,17.03-24.41,30.43-38.32,43.59c-13.78,13.04-27.63,26-41.45,39c0.24,0.3,0.48,0.6,0.72,0.9
			c3.71-2.55,7.76-4.71,11.06-7.71c8.21-7.47,16.16-15.24,24.04-23.05c11.54-11.43,22.92-23.01,34.39-34.51
			c0.78-0.79,1.7-1.44,3.45-2.92c-1.48,5.83-3.66,10.17-6.98,13.73c-8.77,9.42-17.48,18.92-26.75,27.84
			c-13.05,12.55-26.61,24.56-39.87,36.89c-2.45,2.28-4.52,4.98-6.74,7.52c-3.76,4.3-8.48,4.53-12.21,0.35
			c-5.32-5.97-10.56-12.01-15.68-18.16c-3.82-4.59-2.36-10.91,2.88-15.07c15.45-12.26,31.07-24.33,46.11-37.07
			c17.16-14.53,31.5-31.77,44.41-50.09c4.17-5.92,6.81-13,9.56-19.79c1.82-4.5-0.02-6.35-4.9-5.8c-12.25,1.37-23.98,4.52-35.15,9.87
			c-11.24,5.39-22.66,10.42-33.99,15.64c-3.14,1.45-4.67,3.87-4.61,7.44c0.3,17.01,0.54,34.02,0.7,51.03
			C367.96,391.03,367.37,393.18,367.02,395.56z M364.76,286.14c0.48,0.21,0.96,0.43,1.44,0.64c1.84-2.18,3.47-4.58,5.54-6.5
			c13.24-12.3,23.49-26.81,31.95-42.67c2.3-4.31,1.06-6.81-3.64-6.44c-9.47,0.75-18.91,1.85-28.33,3.08
			c-3.57,0.46-5.72,2.73-5.93,6.63c-0.69,13.25-1.52,26.49-2.14,39.73C363.57,282.43,364.37,284.29,364.76,286.14z M453.49,321.3
			c-0.52-0.11-1.04-0.23-1.56-0.34c-1.32,2-2.78,3.93-3.93,6.04c-1.01,1.85-1.36,4.08-2.52,5.8c-17.27,25.7-38.55,47.72-62.2,67.59
			c-9.18,7.72-17.94,15.93-27.28,24.26c8.06,1.5,9.84,0.7,13.79-5.38c0.72-1.11,1.69-2.13,2.73-2.94
			c5.11-3.96,10.35-7.75,15.42-11.75c5.75-4.54,11.38-9.24,17.06-13.87c0.39,0.3,0.79,0.59,1.18,0.89c-0.94,1.68-1.55,3.7-2.89,4.97
			c-5.51,5.24-10.96,10.62-16.99,15.22c-5.02,3.83-7.63,10.97-15.32,11.31c3.59,1.12,6.71,0.21,9.45-1.91
			c3.16-2.43,6.25-4.96,9.24-7.6c20.65-18.19,40.17-37.4,54.7-61.05c0.73-1.18,0.77-3.23,0.31-4.6c-0.87-2.58,0.13-5.25,2.72-6.13
			c0.9-0.31,2.13-0.92,2.38-1.67c1.48-4.35,2.88-8.75,3.94-13.22C454.14,325.17,453.59,323.18,453.49,321.3z M381.4,281.89
			c11.55,0.41,24.61-13.55,29.78-31.09C401.53,260.88,391.54,271.31,381.4,281.89z M441.13,293.76c0.09-0.2,0.17-0.39,0.26-0.59
			c-1.12-0.42-2.2-0.97-3.36-1.22c-5.37-1.15-10.75-2.22-16.13-3.3c-5.89-1.17-14.3,3.3-17.08,9.39
			C417.09,296.6,429.11,295.18,441.13,293.76z M421.68,302.42c-1.33-0.43-1.66-0.66-1.92-0.6c-7.1,1.78-14.21,3.55-21.27,5.47
			c-0.61,0.17-0.95,1.35-1.42,2.07c0.2,0.23,0.39,0.46,0.59,0.69C405.37,307.6,413.07,305.15,421.68,302.42z M385.49,212.89
			c-4.63-3.89-16.4-2.89-20.52,1.38c5.46,0.46,10.8-3.51,16.52-0.55C382.37,214.18,383.97,213.25,385.49,212.89z"/>
		<path class="st0" d="M597.3,232.36c-0.46,10.3-0.37,21.11-3.1,31.85c-1.47,5.78-0.57,12.21-0.47,18.34
			c0.31,19.5-3.53,38.31-9.49,56.72c-2.92,9.01-8.28,16.77-14.24,24.08c-4.09,5.02-7.63,10.64-12.37,14.95
			c-5.5,5.01-11.71,9.48-18.21,13.11c-11.9,6.65-29.83,3.34-39.74-6.49c-13.09-12.99-19.8-28.64-21.15-47.07
			c-1.29-17.58-3.82-35.07-5.41-52.64c-0.89-9.84-0.99-19.75-1.47-29.63c-0.65-13.5-1.84-27.01-1.73-40.51
			c0.04-5.2,2.87-10.42,4.78-15.5c0.35-0.92,2.62-1.9,3.65-1.6c1.46,0.42,3.09,1.76,3.74,3.13c0.88,1.86,0.71,4.17,1.3,6.2
			c1.97,6.68,3.39,13.65,6.31,19.91c4.45,9.55,5.28,19.74,6.91,29.8c2.9,17.88,5.08,35.89,8.48,53.67
			c1.62,8.5,5.19,16.65,8.19,24.85c1.42,3.88,2.46,3.74,5.44,1.04c20.83-18.89,31.49-43.23,36.75-70.1
			c1.56-7.96,0.81-16.46,0.41-24.68c-0.62-12.73-1.9-25.44-2.78-38.16c-0.25-3.7-0.49-7.49,0.01-11.14
			c0.62-4.53,4.07-7.19,8.13-8.52c6.76-2.21,13.64-4,20.5-5.9c6.85-1.9,9.21-0.44,11.18,6.48
			C597.33,200.02,597.64,215.89,597.3,232.36z"/>
		<path class="st0" d="M706.92,229.16c-0.5,4.58-0.91,8.31-1.43,13.07C702.32,236.77,702.8,232.1,706.92,229.16z"/>
		<path class="st0" d="M426.49,365.82c0.52,5.02-1.54,7.98-4.07,10.86c-3.37,3.82-6.48,7.87-9.9,11.65
			c-0.84,0.93-2.45,1.17-3.71,1.72c-0.39-1.21-1.43-2.74-1.02-3.56c0.93-1.87,2.23-4.05,3.98-4.91c3.88-1.93,6.58-4.68,8.77-8.33
			C422.04,370.76,424.18,368.66,426.49,365.82z"/>
		<path class="st0" d="M437.16,357.07c0.4,3.96-3.83,3.96-5.32,6.29c-0.27-0.23-0.55-0.45-0.82-0.68c1.71-2.05,3.43-4.11,5.14-6.16
			C436.49,356.7,436.83,356.88,437.16,357.07z"/>
	</g>
</g>
</svg>
